G04 #@! TF.FileFunction,Soldermask,Top*
%FSLAX46Y46*%
G04 Gerber Fmt 4.6, Leading zero omitted, Abs format (unit mm)*
G04 Created by KiCad (PCBNEW 4.0.5+dfsg1-4~bpo8+1) date Sun Apr 30 20:10:01 2017*
%MOMM*%
%LPD*%
G01*
G04 APERTURE LIST*
%ADD10C,0.100000*%
%ADD11C,0.150000*%
%ADD12R,1.300000X0.900000*%
%ADD13R,2.900000X4.400000*%
%ADD14R,2.127200X2.127200*%
%ADD15O,2.127200X2.127200*%
%ADD16R,2.600000X1.000000*%
%ADD17R,3.000000X2.200000*%
%ADD18R,0.908000X1.543000*%
%ADD19C,2.540000*%
%ADD20C,4.400000*%
G04 APERTURE END LIST*
D10*
D11*
X134493000Y-154940000D02*
X136652000Y-154940000D01*
X134493000Y-72009000D02*
X134493000Y-154940000D01*
X224663000Y-72009000D02*
X134493000Y-72009000D01*
X224663000Y-74930000D02*
X224663000Y-72009000D01*
X224663000Y-154940000D02*
X224663000Y-74930000D01*
X136652000Y-154940000D02*
X224663000Y-154940000D01*
D12*
X164719000Y-144792000D03*
X164719000Y-146292000D03*
D13*
X208153000Y-132270000D03*
X208153000Y-124270000D03*
X170307000Y-132270000D03*
X170307000Y-124270000D03*
X145034000Y-132270000D03*
X145034000Y-124270000D03*
D14*
X209550000Y-82550000D03*
D15*
X212090000Y-82550000D03*
X209550000Y-85090000D03*
X212090000Y-85090000D03*
X209550000Y-87630000D03*
X212090000Y-87630000D03*
X209550000Y-90170000D03*
X212090000Y-90170000D03*
X209550000Y-92710000D03*
X212090000Y-92710000D03*
X209550000Y-95250000D03*
X212090000Y-95250000D03*
X209550000Y-97790000D03*
X212090000Y-97790000D03*
X209550000Y-100330000D03*
X212090000Y-100330000D03*
X209550000Y-102870000D03*
X212090000Y-102870000D03*
X209550000Y-105410000D03*
X212090000Y-105410000D03*
X209550000Y-107950000D03*
X212090000Y-107950000D03*
X209550000Y-110490000D03*
X212090000Y-110490000D03*
D16*
X172680000Y-85290000D03*
X172680000Y-86290000D03*
X172680000Y-87290000D03*
X172680000Y-88290000D03*
X172680000Y-89290000D03*
X172680000Y-90290000D03*
X172680000Y-91290000D03*
X172680000Y-92290000D03*
X172680000Y-93290000D03*
X172680000Y-94290000D03*
X172680000Y-95290000D03*
X172680000Y-96290000D03*
X172680000Y-97290000D03*
X172680000Y-98290000D03*
X172680000Y-99290000D03*
X172680000Y-100290000D03*
X172680000Y-101290000D03*
X172680000Y-102290000D03*
X172680000Y-103290000D03*
X172680000Y-104290000D03*
X172680000Y-105290000D03*
X172680000Y-106290000D03*
X172680000Y-107290000D03*
X172680000Y-108290000D03*
X172680000Y-109290000D03*
X172680000Y-110290000D03*
D17*
X170280000Y-82690000D03*
X170280000Y-112890000D03*
D16*
X148550000Y-85290000D03*
X148550000Y-86290000D03*
X148550000Y-87290000D03*
X148550000Y-88290000D03*
X148550000Y-89290000D03*
X148550000Y-90290000D03*
X148550000Y-91290000D03*
X148550000Y-92290000D03*
X148550000Y-93290000D03*
X148550000Y-94290000D03*
X148550000Y-95290000D03*
X148550000Y-96290000D03*
X148550000Y-97290000D03*
X148550000Y-98290000D03*
X148550000Y-99290000D03*
X148550000Y-100290000D03*
X148550000Y-101290000D03*
X148550000Y-102290000D03*
X148550000Y-103290000D03*
X148550000Y-104290000D03*
X148550000Y-105290000D03*
X148550000Y-106290000D03*
X148550000Y-107290000D03*
X148550000Y-108290000D03*
X148550000Y-109290000D03*
X148550000Y-110290000D03*
D17*
X146150000Y-82690000D03*
X146150000Y-112890000D03*
D12*
X204470000Y-144768000D03*
X204470000Y-143268000D03*
D18*
X169926000Y-148590000D03*
X171196000Y-148590000D03*
X172466000Y-148590000D03*
X173736000Y-148590000D03*
X175006000Y-148590000D03*
X176276000Y-148590000D03*
X177546000Y-148590000D03*
X177546000Y-142240000D03*
X176276000Y-142240000D03*
X173736000Y-142240000D03*
X172466000Y-142240000D03*
X171196000Y-142240000D03*
X169926000Y-142240000D03*
X175006000Y-142240000D03*
X188976000Y-148590000D03*
X190246000Y-148590000D03*
X191516000Y-148590000D03*
X192786000Y-148590000D03*
X194056000Y-148590000D03*
X195326000Y-148590000D03*
X196596000Y-148590000D03*
X196596000Y-142240000D03*
X195326000Y-142240000D03*
X192786000Y-142240000D03*
X191516000Y-142240000D03*
X190246000Y-142240000D03*
X188976000Y-142240000D03*
X194056000Y-142240000D03*
X151892000Y-148590000D03*
X153162000Y-148590000D03*
X154432000Y-148590000D03*
X155702000Y-148590000D03*
X156972000Y-148590000D03*
X158242000Y-148590000D03*
X159512000Y-148590000D03*
X159512000Y-142240000D03*
X158242000Y-142240000D03*
X155702000Y-142240000D03*
X154432000Y-142240000D03*
X153162000Y-142240000D03*
X151892000Y-142240000D03*
X156972000Y-142240000D03*
D12*
X182499000Y-144792000D03*
X182499000Y-146292000D03*
X200787000Y-144792000D03*
X200787000Y-146292000D03*
D19*
X146050000Y-150622000D03*
X146050000Y-76454000D03*
X213106000Y-150495000D03*
D20*
X138938000Y-76454000D03*
X138938000Y-150495000D03*
X220218000Y-150495000D03*
X220218000Y-76454000D03*
M02*
