G04 #@! TF.FileFunction,Soldermask,Bot*
%FSLAX46Y46*%
G04 Gerber Fmt 4.6, Leading zero omitted, Abs format (unit mm)*
G04 Created by KiCad (PCBNEW 4.0.5+dfsg1-4~bpo8+1) date Sun Apr 30 20:10:01 2017*
%MOMM*%
%LPD*%
G01*
G04 APERTURE LIST*
%ADD10C,0.100000*%
%ADD11C,0.150000*%
%ADD12R,2.127200X2.127200*%
%ADD13O,2.127200X2.127200*%
%ADD14C,4.400000*%
G04 APERTURE END LIST*
D10*
D11*
X134493000Y-154940000D02*
X136652000Y-154940000D01*
X134493000Y-72009000D02*
X134493000Y-154940000D01*
X224663000Y-72009000D02*
X134493000Y-72009000D01*
X224663000Y-74930000D02*
X224663000Y-72009000D01*
X224663000Y-154940000D02*
X224663000Y-74930000D01*
X136652000Y-154940000D02*
X224663000Y-154940000D01*
D12*
X209550000Y-82550000D03*
D13*
X212090000Y-82550000D03*
X209550000Y-85090000D03*
X212090000Y-85090000D03*
X209550000Y-87630000D03*
X212090000Y-87630000D03*
X209550000Y-90170000D03*
X212090000Y-90170000D03*
X209550000Y-92710000D03*
X212090000Y-92710000D03*
X209550000Y-95250000D03*
X212090000Y-95250000D03*
X209550000Y-97790000D03*
X212090000Y-97790000D03*
X209550000Y-100330000D03*
X212090000Y-100330000D03*
X209550000Y-102870000D03*
X212090000Y-102870000D03*
X209550000Y-105410000D03*
X212090000Y-105410000D03*
X209550000Y-107950000D03*
X212090000Y-107950000D03*
X209550000Y-110490000D03*
X212090000Y-110490000D03*
D14*
X138938000Y-76454000D03*
X138938000Y-150495000D03*
X220218000Y-150495000D03*
X220218000Y-76454000D03*
M02*
