G04 #@! TF.FileFunction,Copper,L1,Top,Signal*
%FSLAX46Y46*%
G04 Gerber Fmt 4.6, Leading zero omitted, Abs format (unit mm)*
G04 Created by KiCad (PCBNEW 4.0.5+dfsg1-4~bpo8+1) date Sun Apr 30 20:15:14 2017*
%MOMM*%
%LPD*%
G01*
G04 APERTURE LIST*
%ADD10C,0.100000*%
%ADD11C,0.300000*%
%ADD12C,0.150000*%
%ADD13R,0.900000X0.500000*%
%ADD14R,2.500000X4.000000*%
%ADD15R,1.727200X1.727200*%
%ADD16O,1.727200X1.727200*%
%ADD17R,2.200000X0.600000*%
%ADD18R,2.600000X1.800000*%
%ADD19R,0.508000X1.143000*%
%ADD20C,1.000000*%
%ADD21C,0.600000*%
%ADD22C,1.000000*%
%ADD23C,0.400000*%
%ADD24C,0.250000*%
G04 APERTURE END LIST*
D10*
D11*
X165463717Y-76831000D02*
X166178003Y-76831000D01*
X165320860Y-77259571D02*
X165820860Y-75759571D01*
X166320860Y-77259571D01*
X167606574Y-77259571D02*
X166749431Y-77259571D01*
X167178003Y-77259571D02*
X167178003Y-75759571D01*
X167035146Y-75973857D01*
X166892288Y-76116714D01*
X166749431Y-76188143D01*
X168535145Y-75759571D02*
X168678002Y-75759571D01*
X168820859Y-75831000D01*
X168892288Y-75902429D01*
X168963717Y-76045286D01*
X169035145Y-76331000D01*
X169035145Y-76688143D01*
X168963717Y-76973857D01*
X168892288Y-77116714D01*
X168820859Y-77188143D01*
X168678002Y-77259571D01*
X168535145Y-77259571D01*
X168392288Y-77188143D01*
X168320859Y-77116714D01*
X168249431Y-76973857D01*
X168178002Y-76688143D01*
X168178002Y-76331000D01*
X168249431Y-76045286D01*
X168320859Y-75902429D01*
X168392288Y-75831000D01*
X168535145Y-75759571D01*
X170463716Y-77259571D02*
X169606573Y-77259571D01*
X170035145Y-77259571D02*
X170035145Y-75759571D01*
X169892288Y-75973857D01*
X169749430Y-76116714D01*
X169606573Y-76188143D01*
X171035144Y-75902429D02*
X171106573Y-75831000D01*
X171249430Y-75759571D01*
X171606573Y-75759571D01*
X171749430Y-75831000D01*
X171820859Y-75902429D01*
X171892287Y-76045286D01*
X171892287Y-76188143D01*
X171820859Y-76402429D01*
X170963716Y-77259571D01*
X171892287Y-77259571D01*
X174106572Y-77831000D02*
X174035144Y-77759571D01*
X173892287Y-77545286D01*
X173820858Y-77402429D01*
X173749429Y-77188143D01*
X173678001Y-76831000D01*
X173678001Y-76545286D01*
X173749429Y-76188143D01*
X173820858Y-75973857D01*
X173892287Y-75831000D01*
X174035144Y-75616714D01*
X174106572Y-75545286D01*
X175535144Y-77116714D02*
X175463715Y-77188143D01*
X175249429Y-77259571D01*
X175106572Y-77259571D01*
X174892287Y-77188143D01*
X174749429Y-77045286D01*
X174678001Y-76902429D01*
X174606572Y-76616714D01*
X174606572Y-76402429D01*
X174678001Y-76116714D01*
X174749429Y-75973857D01*
X174892287Y-75831000D01*
X175106572Y-75759571D01*
X175249429Y-75759571D01*
X175463715Y-75831000D01*
X175535144Y-75902429D01*
X176035144Y-77831000D02*
X176106572Y-77759571D01*
X176249429Y-77545286D01*
X176320858Y-77402429D01*
X176392287Y-77188143D01*
X176463715Y-76831000D01*
X176463715Y-76545286D01*
X176392287Y-76188143D01*
X176320858Y-75973857D01*
X176249429Y-75831000D01*
X176106572Y-75616714D01*
X176035144Y-75545286D01*
X178249429Y-77188143D02*
X178463715Y-77259571D01*
X178820858Y-77259571D01*
X178963715Y-77188143D01*
X179035144Y-77116714D01*
X179106572Y-76973857D01*
X179106572Y-76831000D01*
X179035144Y-76688143D01*
X178963715Y-76616714D01*
X178820858Y-76545286D01*
X178535144Y-76473857D01*
X178392286Y-76402429D01*
X178320858Y-76331000D01*
X178249429Y-76188143D01*
X178249429Y-76045286D01*
X178320858Y-75902429D01*
X178392286Y-75831000D01*
X178535144Y-75759571D01*
X178892286Y-75759571D01*
X179106572Y-75831000D01*
X179963715Y-77259571D02*
X179820857Y-77188143D01*
X179749429Y-77116714D01*
X179678000Y-76973857D01*
X179678000Y-76545286D01*
X179749429Y-76402429D01*
X179820857Y-76331000D01*
X179963715Y-76259571D01*
X180178000Y-76259571D01*
X180320857Y-76331000D01*
X180392286Y-76402429D01*
X180463715Y-76545286D01*
X180463715Y-76973857D01*
X180392286Y-77116714D01*
X180320857Y-77188143D01*
X180178000Y-77259571D01*
X179963715Y-77259571D01*
X179820857Y-75759571D02*
X179892286Y-75831000D01*
X179820857Y-75902429D01*
X179749429Y-75831000D01*
X179820857Y-75759571D01*
X179820857Y-75902429D01*
X180392286Y-75759571D02*
X180463715Y-75831000D01*
X180392286Y-75902429D01*
X180320857Y-75831000D01*
X180392286Y-75759571D01*
X180392286Y-75902429D01*
X181106572Y-77259571D02*
X181106572Y-76259571D01*
X181106572Y-76545286D02*
X181178000Y-76402429D01*
X181249429Y-76331000D01*
X181392286Y-76259571D01*
X181535143Y-76259571D01*
X182606571Y-77188143D02*
X182463714Y-77259571D01*
X182178000Y-77259571D01*
X182035143Y-77188143D01*
X181963714Y-77045286D01*
X181963714Y-76473857D01*
X182035143Y-76331000D01*
X182178000Y-76259571D01*
X182463714Y-76259571D01*
X182606571Y-76331000D01*
X182678000Y-76473857D01*
X182678000Y-76616714D01*
X181963714Y-76759571D01*
X183320857Y-76259571D02*
X183320857Y-77259571D01*
X183320857Y-76402429D02*
X183392285Y-76331000D01*
X183535143Y-76259571D01*
X183749428Y-76259571D01*
X183892285Y-76331000D01*
X183963714Y-76473857D01*
X183963714Y-77259571D01*
X186606571Y-75831000D02*
X186463714Y-75759571D01*
X186249428Y-75759571D01*
X186035143Y-75831000D01*
X185892285Y-75973857D01*
X185820857Y-76116714D01*
X185749428Y-76402429D01*
X185749428Y-76616714D01*
X185820857Y-76902429D01*
X185892285Y-77045286D01*
X186035143Y-77188143D01*
X186249428Y-77259571D01*
X186392285Y-77259571D01*
X186606571Y-77188143D01*
X186678000Y-77116714D01*
X186678000Y-76616714D01*
X186392285Y-76616714D01*
X187963714Y-76259571D02*
X187963714Y-77259571D01*
X187320857Y-76259571D02*
X187320857Y-77045286D01*
X187392285Y-77188143D01*
X187535143Y-77259571D01*
X187749428Y-77259571D01*
X187892285Y-77188143D01*
X187963714Y-77116714D01*
X188606571Y-77188143D02*
X188749428Y-77259571D01*
X189035143Y-77259571D01*
X189178000Y-77188143D01*
X189249428Y-77045286D01*
X189249428Y-76973857D01*
X189178000Y-76831000D01*
X189035143Y-76759571D01*
X188820857Y-76759571D01*
X188678000Y-76688143D01*
X188606571Y-76545286D01*
X188606571Y-76473857D01*
X188678000Y-76331000D01*
X188820857Y-76259571D01*
X189035143Y-76259571D01*
X189178000Y-76331000D01*
X189678000Y-76259571D02*
X190249429Y-76259571D01*
X189892286Y-75759571D02*
X189892286Y-77045286D01*
X189963714Y-77188143D01*
X190106572Y-77259571D01*
X190249429Y-77259571D01*
X191820857Y-75902429D02*
X191892286Y-75831000D01*
X192035143Y-75759571D01*
X192392286Y-75759571D01*
X192535143Y-75831000D01*
X192606572Y-75902429D01*
X192678000Y-76045286D01*
X192678000Y-76188143D01*
X192606572Y-76402429D01*
X191749429Y-77259571D01*
X192678000Y-77259571D01*
X193606571Y-75759571D02*
X193749428Y-75759571D01*
X193892285Y-75831000D01*
X193963714Y-75902429D01*
X194035143Y-76045286D01*
X194106571Y-76331000D01*
X194106571Y-76688143D01*
X194035143Y-76973857D01*
X193963714Y-77116714D01*
X193892285Y-77188143D01*
X193749428Y-77259571D01*
X193606571Y-77259571D01*
X193463714Y-77188143D01*
X193392285Y-77116714D01*
X193320857Y-76973857D01*
X193249428Y-76688143D01*
X193249428Y-76331000D01*
X193320857Y-76045286D01*
X193392285Y-75902429D01*
X193463714Y-75831000D01*
X193606571Y-75759571D01*
X195535142Y-77259571D02*
X194677999Y-77259571D01*
X195106571Y-77259571D02*
X195106571Y-75759571D01*
X194963714Y-75973857D01*
X194820856Y-76116714D01*
X194677999Y-76188143D01*
X196035142Y-75759571D02*
X197035142Y-75759571D01*
X196392285Y-77259571D01*
X197606570Y-76688143D02*
X198749427Y-76688143D01*
X199749427Y-75759571D02*
X199892284Y-75759571D01*
X200035141Y-75831000D01*
X200106570Y-75902429D01*
X200177999Y-76045286D01*
X200249427Y-76331000D01*
X200249427Y-76688143D01*
X200177999Y-76973857D01*
X200106570Y-77116714D01*
X200035141Y-77188143D01*
X199892284Y-77259571D01*
X199749427Y-77259571D01*
X199606570Y-77188143D01*
X199535141Y-77116714D01*
X199463713Y-76973857D01*
X199392284Y-76688143D01*
X199392284Y-76331000D01*
X199463713Y-76045286D01*
X199535141Y-75902429D01*
X199606570Y-75831000D01*
X199749427Y-75759571D01*
X201535141Y-76259571D02*
X201535141Y-77259571D01*
X201177998Y-75688143D02*
X200820855Y-76759571D01*
X201749427Y-76759571D01*
X202320855Y-76688143D02*
X203463712Y-76688143D01*
X204035141Y-75759571D02*
X204963712Y-75759571D01*
X204463712Y-76331000D01*
X204677998Y-76331000D01*
X204820855Y-76402429D01*
X204892284Y-76473857D01*
X204963712Y-76616714D01*
X204963712Y-76973857D01*
X204892284Y-77116714D01*
X204820855Y-77188143D01*
X204677998Y-77259571D01*
X204249426Y-77259571D01*
X204106569Y-77188143D01*
X204035141Y-77116714D01*
X205892283Y-75759571D02*
X206035140Y-75759571D01*
X206177997Y-75831000D01*
X206249426Y-75902429D01*
X206320855Y-76045286D01*
X206392283Y-76331000D01*
X206392283Y-76688143D01*
X206320855Y-76973857D01*
X206249426Y-77116714D01*
X206177997Y-77188143D01*
X206035140Y-77259571D01*
X205892283Y-77259571D01*
X205749426Y-77188143D01*
X205677997Y-77116714D01*
X205606569Y-76973857D01*
X205535140Y-76688143D01*
X205535140Y-76331000D01*
X205606569Y-76045286D01*
X205677997Y-75902429D01*
X205749426Y-75831000D01*
X205892283Y-75759571D01*
X153666286Y-76473857D02*
X153166286Y-76473857D01*
X153166286Y-77259571D02*
X153166286Y-75759571D01*
X153880572Y-75759571D01*
X154452000Y-77259571D02*
X154452000Y-76259571D01*
X154452000Y-76545286D02*
X154523428Y-76402429D01*
X154594857Y-76331000D01*
X154737714Y-76259571D01*
X154880571Y-76259571D01*
X155594857Y-77259571D02*
X155451999Y-77188143D01*
X155380571Y-77116714D01*
X155309142Y-76973857D01*
X155309142Y-76545286D01*
X155380571Y-76402429D01*
X155451999Y-76331000D01*
X155594857Y-76259571D01*
X155809142Y-76259571D01*
X155951999Y-76331000D01*
X156023428Y-76402429D01*
X156094857Y-76545286D01*
X156094857Y-76973857D01*
X156023428Y-77116714D01*
X155951999Y-77188143D01*
X155809142Y-77259571D01*
X155594857Y-77259571D01*
X156737714Y-76259571D02*
X156737714Y-77259571D01*
X156737714Y-76402429D02*
X156809142Y-76331000D01*
X156952000Y-76259571D01*
X157166285Y-76259571D01*
X157309142Y-76331000D01*
X157380571Y-76473857D01*
X157380571Y-77259571D01*
X157880571Y-76259571D02*
X158452000Y-76259571D01*
X158094857Y-75759571D02*
X158094857Y-77045286D01*
X158166285Y-77188143D01*
X158309143Y-77259571D01*
X158452000Y-77259571D01*
D12*
X134493000Y-154940000D02*
X136652000Y-154940000D01*
X134493000Y-72009000D02*
X134493000Y-154940000D01*
X224663000Y-72009000D02*
X134493000Y-72009000D01*
X224663000Y-74930000D02*
X224663000Y-72009000D01*
X224663000Y-154940000D02*
X224663000Y-74930000D01*
X136652000Y-154940000D02*
X224663000Y-154940000D01*
D13*
X164719000Y-144792000D03*
X164719000Y-146292000D03*
D14*
X208153000Y-132270000D03*
X208153000Y-124270000D03*
X170307000Y-132270000D03*
X170307000Y-124270000D03*
X145034000Y-132270000D03*
X145034000Y-124270000D03*
D15*
X209550000Y-82550000D03*
D16*
X212090000Y-82550000D03*
X209550000Y-85090000D03*
X212090000Y-85090000D03*
X209550000Y-87630000D03*
X212090000Y-87630000D03*
X209550000Y-90170000D03*
X212090000Y-90170000D03*
X209550000Y-92710000D03*
X212090000Y-92710000D03*
X209550000Y-95250000D03*
X212090000Y-95250000D03*
X209550000Y-97790000D03*
X212090000Y-97790000D03*
X209550000Y-100330000D03*
X212090000Y-100330000D03*
X209550000Y-102870000D03*
X212090000Y-102870000D03*
X209550000Y-105410000D03*
X212090000Y-105410000D03*
X209550000Y-107950000D03*
X212090000Y-107950000D03*
X209550000Y-110490000D03*
X212090000Y-110490000D03*
D17*
X172680000Y-85290000D03*
X172680000Y-86290000D03*
X172680000Y-87290000D03*
X172680000Y-88290000D03*
X172680000Y-89290000D03*
X172680000Y-90290000D03*
X172680000Y-91290000D03*
X172680000Y-92290000D03*
X172680000Y-93290000D03*
X172680000Y-94290000D03*
X172680000Y-95290000D03*
X172680000Y-96290000D03*
X172680000Y-97290000D03*
X172680000Y-98290000D03*
X172680000Y-99290000D03*
X172680000Y-100290000D03*
X172680000Y-101290000D03*
X172680000Y-102290000D03*
X172680000Y-103290000D03*
X172680000Y-104290000D03*
X172680000Y-105290000D03*
X172680000Y-106290000D03*
X172680000Y-107290000D03*
X172680000Y-108290000D03*
X172680000Y-109290000D03*
X172680000Y-110290000D03*
D18*
X170280000Y-82690000D03*
X170280000Y-112890000D03*
D17*
X148550000Y-85290000D03*
X148550000Y-86290000D03*
X148550000Y-87290000D03*
X148550000Y-88290000D03*
X148550000Y-89290000D03*
X148550000Y-90290000D03*
X148550000Y-91290000D03*
X148550000Y-92290000D03*
X148550000Y-93290000D03*
X148550000Y-94290000D03*
X148550000Y-95290000D03*
X148550000Y-96290000D03*
X148550000Y-97290000D03*
X148550000Y-98290000D03*
X148550000Y-99290000D03*
X148550000Y-100290000D03*
X148550000Y-101290000D03*
X148550000Y-102290000D03*
X148550000Y-103290000D03*
X148550000Y-104290000D03*
X148550000Y-105290000D03*
X148550000Y-106290000D03*
X148550000Y-107290000D03*
X148550000Y-108290000D03*
X148550000Y-109290000D03*
X148550000Y-110290000D03*
D18*
X146150000Y-82690000D03*
X146150000Y-112890000D03*
D13*
X204470000Y-144768000D03*
X204470000Y-143268000D03*
D19*
X169926000Y-148590000D03*
X171196000Y-148590000D03*
X172466000Y-148590000D03*
X173736000Y-148590000D03*
X175006000Y-148590000D03*
X176276000Y-148590000D03*
X177546000Y-148590000D03*
X177546000Y-142240000D03*
X176276000Y-142240000D03*
X173736000Y-142240000D03*
X172466000Y-142240000D03*
X171196000Y-142240000D03*
X169926000Y-142240000D03*
X175006000Y-142240000D03*
X188976000Y-148590000D03*
X190246000Y-148590000D03*
X191516000Y-148590000D03*
X192786000Y-148590000D03*
X194056000Y-148590000D03*
X195326000Y-148590000D03*
X196596000Y-148590000D03*
X196596000Y-142240000D03*
X195326000Y-142240000D03*
X192786000Y-142240000D03*
X191516000Y-142240000D03*
X190246000Y-142240000D03*
X188976000Y-142240000D03*
X194056000Y-142240000D03*
X151892000Y-148590000D03*
X153162000Y-148590000D03*
X154432000Y-148590000D03*
X155702000Y-148590000D03*
X156972000Y-148590000D03*
X158242000Y-148590000D03*
X159512000Y-148590000D03*
X159512000Y-142240000D03*
X158242000Y-142240000D03*
X155702000Y-142240000D03*
X154432000Y-142240000D03*
X153162000Y-142240000D03*
X151892000Y-142240000D03*
X156972000Y-142240000D03*
D13*
X182499000Y-144792000D03*
X182499000Y-146292000D03*
X200787000Y-144792000D03*
X200787000Y-146292000D03*
D20*
X146050000Y-150622000D03*
X146050000Y-76454000D03*
X213106000Y-150495000D03*
D21*
X215900000Y-132207000D03*
X178054000Y-132207000D03*
X178054000Y-110236000D03*
X178054000Y-108331000D03*
X178054000Y-106299000D03*
X153416000Y-132334000D03*
X153416000Y-110363000D03*
X153416000Y-108331000D03*
X153416000Y-106299000D03*
X166624000Y-124270000D03*
X218504000Y-124270000D03*
X166624000Y-96266000D03*
X166624000Y-94234000D03*
X166624000Y-92329000D03*
X166624000Y-90297000D03*
X166624000Y-88265000D03*
X166624000Y-86233000D03*
X148717000Y-124333000D03*
X145034000Y-88290000D03*
X145034000Y-90290000D03*
X145034000Y-92329000D03*
X145034000Y-94290000D03*
X144964000Y-86290000D03*
X145034000Y-96266000D03*
X176276000Y-147320000D03*
X187960000Y-82550000D03*
X192278000Y-91440000D03*
X192786000Y-134620000D03*
X192786000Y-139954000D03*
X191516000Y-150876000D03*
X186690000Y-92710000D03*
X151892000Y-151511000D03*
X151892000Y-107315000D03*
X178054000Y-85344000D03*
X180975000Y-88265000D03*
X169926000Y-150876000D03*
X169926000Y-107315000D03*
X179578000Y-101981000D03*
X179578000Y-134620000D03*
X159512000Y-101346000D03*
X159512000Y-140589000D03*
X190246000Y-147066000D03*
X190246000Y-139954000D03*
X192786000Y-147066000D03*
X194056000Y-139954000D03*
X173736000Y-150876000D03*
X183134000Y-150876000D03*
X175641000Y-138430000D03*
X195326000Y-150876000D03*
X196596000Y-139192000D03*
X173736000Y-139192000D03*
X156972000Y-152527000D03*
X195326000Y-139954000D03*
X155702000Y-151257000D03*
X191516000Y-139954000D03*
D22*
X215837000Y-132270000D02*
X208153000Y-132270000D01*
X215900000Y-132207000D02*
X215837000Y-132270000D01*
X170307000Y-132270000D02*
X153480000Y-132270000D01*
X153480000Y-132270000D02*
X153416000Y-132334000D01*
X178054000Y-132207000D02*
X170370000Y-132207000D01*
X170370000Y-132207000D02*
X170307000Y-132270000D01*
X208153000Y-132270000D02*
X178117000Y-132270000D01*
X178117000Y-132270000D02*
X178054000Y-132207000D01*
X177991000Y-132270000D02*
X178054000Y-132207000D01*
X153480000Y-132270000D02*
X153416000Y-132334000D01*
X170370000Y-132207000D02*
X170307000Y-132270000D01*
X170370000Y-132207000D02*
X170307000Y-132270000D01*
D23*
X182499000Y-144792000D02*
X164719000Y-144792000D01*
X200787000Y-144792000D02*
X182499000Y-144792000D01*
X164720102Y-144790898D02*
X164719000Y-144792000D01*
X204482000Y-144780000D02*
X207772000Y-144780000D01*
X208153000Y-144399000D02*
X207772000Y-144780000D01*
X208153000Y-144399000D02*
X208153000Y-132270000D01*
X204482000Y-144780000D02*
X204470000Y-144792000D01*
X204470000Y-144792000D02*
X200787000Y-144792000D01*
X200799000Y-144768000D02*
X200787000Y-144780000D01*
D24*
X164719000Y-144792000D02*
X164719000Y-144018000D01*
X164719000Y-144018000D02*
X164338000Y-143637000D01*
X164338000Y-143637000D02*
X152273000Y-143637000D01*
X152273000Y-143637000D02*
X151892000Y-143256000D01*
X151892000Y-143256000D02*
X151892000Y-142240000D01*
X200787000Y-144780000D02*
X200787000Y-143891000D01*
X188976000Y-143129000D02*
X188976000Y-142240000D01*
X189357000Y-143510000D02*
X188976000Y-143129000D01*
X200406000Y-143510000D02*
X189357000Y-143510000D01*
X200787000Y-143891000D02*
X200406000Y-143510000D01*
X182499000Y-144792000D02*
X182499000Y-144018000D01*
X182499000Y-144018000D02*
X182118000Y-143637000D01*
X182118000Y-143637000D02*
X170307000Y-143637000D01*
X170307000Y-143637000D02*
X169926000Y-143256000D01*
X169926000Y-143256000D02*
X169926000Y-142240000D01*
X172680000Y-110290000D02*
X178000000Y-110290000D01*
X178000000Y-110290000D02*
X178054000Y-110236000D01*
X172680000Y-108290000D02*
X178013000Y-108290000D01*
X178013000Y-108290000D02*
X178054000Y-108331000D01*
X172680000Y-106290000D02*
X178045000Y-106290000D01*
X178045000Y-106290000D02*
X178054000Y-106299000D01*
D22*
X153480000Y-132270000D02*
X153543000Y-132270000D01*
X153543000Y-132270000D02*
X146050000Y-132270000D01*
X153416000Y-132334000D02*
X153480000Y-132270000D01*
D24*
X148550000Y-110290000D02*
X153343000Y-110290000D01*
X153343000Y-110290000D02*
X153416000Y-110363000D01*
X148550000Y-108290000D02*
X153375000Y-108290000D01*
X153375000Y-108290000D02*
X153416000Y-108331000D01*
X148550000Y-106290000D02*
X153407000Y-106290000D01*
X153407000Y-106290000D02*
X153416000Y-106299000D01*
D22*
X166624000Y-124270000D02*
X148780000Y-124270000D01*
X148780000Y-124270000D02*
X148717000Y-124333000D01*
X170307000Y-124270000D02*
X166624000Y-124270000D01*
X208153000Y-124270000D02*
X170307000Y-124270000D01*
X208153000Y-124270000D02*
X218504000Y-124270000D01*
D23*
X182499000Y-146292000D02*
X164719000Y-146292000D01*
X200787000Y-146292000D02*
X182499000Y-146292000D01*
D24*
X182499000Y-146292000D02*
X182499000Y-150495000D01*
X182499000Y-150495000D02*
X182118000Y-150876000D01*
X182118000Y-150876000D02*
X177927000Y-150876000D01*
X177927000Y-150876000D02*
X177546000Y-150495000D01*
X177546000Y-150495000D02*
X177546000Y-148590000D01*
D23*
X208153000Y-124270000D02*
X208153000Y-127889000D01*
X217170000Y-146304000D02*
X200799000Y-146304000D01*
X217805000Y-145669000D02*
X217170000Y-146304000D01*
X217805000Y-129286000D02*
X217805000Y-145669000D01*
X217043000Y-128524000D02*
X217805000Y-129286000D01*
X208788000Y-128524000D02*
X217043000Y-128524000D01*
X208153000Y-127889000D02*
X208788000Y-128524000D01*
X200799000Y-146304000D02*
X200787000Y-146292000D01*
D24*
X164719000Y-146292000D02*
X164719000Y-150368000D01*
X164719000Y-150368000D02*
X164338000Y-150749000D01*
X164338000Y-150749000D02*
X159893000Y-150749000D01*
X159893000Y-150749000D02*
X159512000Y-150368000D01*
X159512000Y-150368000D02*
X159512000Y-148590000D01*
X200787000Y-146292000D02*
X200787000Y-151257000D01*
X200787000Y-151257000D02*
X200406000Y-151638000D01*
X200406000Y-151638000D02*
X196977000Y-151638000D01*
X196977000Y-151638000D02*
X196596000Y-151257000D01*
X196596000Y-151257000D02*
X196596000Y-148590000D01*
X177546000Y-150495000D02*
X177546000Y-148590000D01*
X177927000Y-150876000D02*
X177546000Y-150495000D01*
X182118000Y-150876000D02*
X177927000Y-150876000D01*
X182499000Y-150495000D02*
X182118000Y-150876000D01*
X172680000Y-96290000D02*
X166648000Y-96290000D01*
X166648000Y-96290000D02*
X166624000Y-96266000D01*
X172680000Y-94290000D02*
X166680000Y-94290000D01*
X166680000Y-94290000D02*
X166624000Y-94234000D01*
X172680000Y-92290000D02*
X166663000Y-92290000D01*
X166663000Y-92290000D02*
X166624000Y-92329000D01*
X172680000Y-90290000D02*
X166631000Y-90290000D01*
X166631000Y-90290000D02*
X166624000Y-90297000D01*
X172680000Y-88290000D02*
X166649000Y-88290000D01*
X166649000Y-88290000D02*
X166624000Y-88265000D01*
X172680000Y-86290000D02*
X166681000Y-86290000D01*
X166681000Y-86290000D02*
X166624000Y-86233000D01*
D22*
X148717000Y-124333000D02*
X148717000Y-124270000D01*
X148717000Y-124270000D02*
X146050000Y-124270000D01*
D24*
X144907000Y-86233000D02*
X144964000Y-86290000D01*
X144964000Y-86290000D02*
X144907000Y-86233000D01*
X145034000Y-96266000D02*
X145058000Y-96290000D01*
X148550000Y-96290000D02*
X145058000Y-96290000D01*
X145058000Y-96290000D02*
X145034000Y-96266000D01*
X148550000Y-94290000D02*
X145034000Y-94290000D01*
X145034000Y-94290000D02*
X144963000Y-94290000D01*
X144963000Y-94290000D02*
X144907000Y-94234000D01*
X148550000Y-92290000D02*
X144946000Y-92290000D01*
X144946000Y-92290000D02*
X144907000Y-92329000D01*
X148550000Y-90290000D02*
X145034000Y-90290000D01*
X145034000Y-90290000D02*
X144914000Y-90290000D01*
X144914000Y-90290000D02*
X144907000Y-90297000D01*
X148550000Y-88290000D02*
X145034000Y-88290000D01*
X145034000Y-88290000D02*
X144932000Y-88290000D01*
X144932000Y-88290000D02*
X144907000Y-88265000D01*
X148550000Y-86290000D02*
X144964000Y-86290000D01*
X209550000Y-82550000D02*
X187960000Y-82550000D01*
X158242000Y-148590000D02*
X158242000Y-151130000D01*
X176276000Y-147320000D02*
X176276000Y-148590000D01*
X175895000Y-146939000D02*
X176276000Y-147320000D01*
X168656000Y-146939000D02*
X175895000Y-146939000D01*
X168275000Y-147320000D02*
X168656000Y-146939000D01*
X168275000Y-151130000D02*
X168275000Y-147320000D01*
X167894000Y-151511000D02*
X168275000Y-151130000D01*
X158623000Y-151511000D02*
X167894000Y-151511000D01*
X158242000Y-151130000D02*
X158623000Y-151511000D01*
X172680000Y-87290000D02*
X148550000Y-87290000D01*
X212090000Y-82550000D02*
X212090000Y-82423000D01*
X212090000Y-82423000D02*
X210566000Y-80899000D01*
X210566000Y-80899000D02*
X185547000Y-80899000D01*
X185547000Y-80899000D02*
X179197000Y-87249000D01*
X179197000Y-87249000D02*
X172721000Y-87249000D01*
X172721000Y-87249000D02*
X172680000Y-87290000D01*
X192786000Y-139954000D02*
X192786000Y-134620000D01*
X210820000Y-91440000D02*
X212090000Y-90170000D01*
X192278000Y-91440000D02*
X210820000Y-91440000D01*
X191516000Y-148590000D02*
X191516000Y-150876000D01*
X192786000Y-139954000D02*
X192786000Y-142240000D01*
X186690000Y-92710000D02*
X209550000Y-92710000D01*
X148550000Y-107290000D02*
X151867000Y-107290000D01*
X151892000Y-107315000D02*
X151867000Y-107290000D01*
X151892000Y-148590000D02*
X151892000Y-151511000D01*
X153162000Y-151130000D02*
X153162000Y-148590000D01*
X152908000Y-151511000D02*
X153162000Y-151130000D01*
X151892000Y-151511000D02*
X152908000Y-151511000D01*
X151892000Y-151511000D02*
X151892000Y-151511000D01*
X148550000Y-105290000D02*
X172680000Y-105290000D01*
X172680000Y-105290000D02*
X172687000Y-105283000D01*
X172687000Y-105283000D02*
X178054000Y-105283000D01*
X178054000Y-105283000D02*
X179070000Y-105283000D01*
X179070000Y-105283000D02*
X180467000Y-106680000D01*
X180467000Y-106680000D02*
X212979000Y-106680000D01*
X212979000Y-106680000D02*
X214122000Y-105537000D01*
X214122000Y-105537000D02*
X214122000Y-97663000D01*
X214122000Y-97663000D02*
X212979000Y-96520000D01*
X212979000Y-96520000D02*
X210820000Y-96520000D01*
X210820000Y-96520000D02*
X209550000Y-95250000D01*
X172680000Y-85290000D02*
X148550000Y-85290000D01*
X209550000Y-97790000D02*
X208280000Y-96520000D01*
X178054000Y-85344000D02*
X172734000Y-85344000D01*
X189230000Y-96520000D02*
X180975000Y-88265000D01*
X208280000Y-96520000D02*
X189230000Y-96520000D01*
X172734000Y-85344000D02*
X172680000Y-85290000D01*
X148550000Y-89290000D02*
X172680000Y-89290000D01*
X172680000Y-89290000D02*
X172689000Y-89281000D01*
X172689000Y-89281000D02*
X178054000Y-89281000D01*
X178054000Y-89281000D02*
X187833000Y-99060000D01*
X187833000Y-99060000D02*
X210820000Y-99060000D01*
X210820000Y-99060000D02*
X212090000Y-97790000D01*
X148550000Y-91290000D02*
X172680000Y-91290000D01*
X172680000Y-91290000D02*
X172703000Y-91313000D01*
X172703000Y-91313000D02*
X178054000Y-91313000D01*
X178054000Y-91313000D02*
X187071000Y-100330000D01*
X187071000Y-100330000D02*
X209550000Y-100330000D01*
X148550000Y-93290000D02*
X172680000Y-93290000D01*
X172680000Y-93290000D02*
X172735000Y-93345000D01*
X172735000Y-93345000D02*
X178054000Y-93345000D01*
X178054000Y-93345000D02*
X186309000Y-101600000D01*
X186309000Y-101600000D02*
X210820000Y-101600000D01*
X210820000Y-101600000D02*
X212090000Y-100330000D01*
X148550000Y-95290000D02*
X172680000Y-95290000D01*
X172680000Y-95290000D02*
X172720000Y-95250000D01*
X172720000Y-95250000D02*
X178054000Y-95250000D01*
X178054000Y-95250000D02*
X185674000Y-102870000D01*
X185674000Y-102870000D02*
X209550000Y-102870000D01*
X148550000Y-97290000D02*
X172680000Y-97290000D01*
X172680000Y-97290000D02*
X172688000Y-97282000D01*
X172688000Y-97282000D02*
X178054000Y-97282000D01*
X178054000Y-97282000D02*
X184912000Y-104140000D01*
X184912000Y-104140000D02*
X210820000Y-104140000D01*
X210820000Y-104140000D02*
X212090000Y-102870000D01*
X148550000Y-99290000D02*
X172680000Y-99290000D01*
X172680000Y-99290000D02*
X172704000Y-99314000D01*
X172704000Y-99314000D02*
X178054000Y-99314000D01*
X178054000Y-99314000D02*
X184150000Y-105410000D01*
X184150000Y-105410000D02*
X209550000Y-105410000D01*
X172680000Y-107290000D02*
X169951000Y-107290000D01*
X169926000Y-107315000D02*
X169951000Y-107290000D01*
X169926000Y-148590000D02*
X169926000Y-150876000D01*
X169926000Y-150876000D02*
X169926000Y-151638000D01*
X171196000Y-151257000D02*
X171196000Y-148590000D01*
X170815000Y-151638000D02*
X171196000Y-151257000D01*
X169926000Y-151638000D02*
X170815000Y-151638000D01*
X169926000Y-151638000D02*
X169926000Y-151638000D01*
X172680000Y-107290000D02*
X208890000Y-107290000D01*
X208890000Y-107290000D02*
X209550000Y-107950000D01*
X148550000Y-109290000D02*
X172680000Y-109290000D01*
X172680000Y-109290000D02*
X172750000Y-109220000D01*
X172750000Y-109220000D02*
X210820000Y-109220000D01*
X210820000Y-109220000D02*
X212090000Y-107950000D01*
X177546000Y-142240000D02*
X177546000Y-136652000D01*
X178887000Y-101290000D02*
X172680000Y-101290000D01*
X179578000Y-101981000D02*
X178887000Y-101290000D01*
X177546000Y-136652000D02*
X179578000Y-134620000D01*
X159512000Y-142240000D02*
X159512000Y-140589000D01*
X159456000Y-101290000D02*
X148550000Y-101290000D01*
X159512000Y-101346000D02*
X159456000Y-101290000D01*
X190246000Y-142240000D02*
X190246000Y-139954000D01*
X204470000Y-143268000D02*
X204470000Y-139065000D01*
X194056000Y-139065000D02*
X194056000Y-139954000D01*
X194691000Y-138430000D02*
X194056000Y-139065000D01*
X203835000Y-138430000D02*
X194691000Y-138430000D01*
X204470000Y-139065000D02*
X203835000Y-138430000D01*
X194056000Y-142240000D02*
X194056000Y-139954000D01*
X188976000Y-148590000D02*
X188976000Y-147447000D01*
X192786000Y-147066000D02*
X192786000Y-148590000D01*
X192786000Y-147066000D02*
X192786000Y-147066000D01*
X189357000Y-147066000D02*
X190246000Y-147066000D01*
X190246000Y-147066000D02*
X192786000Y-147066000D01*
X188976000Y-147447000D02*
X189357000Y-147066000D01*
X190246000Y-148590000D02*
X190246000Y-150114000D01*
X189484000Y-150876000D02*
X183134000Y-150876000D01*
X190246000Y-150114000D02*
X189484000Y-150876000D01*
X172466000Y-148590000D02*
X172466000Y-151257000D01*
X173736000Y-151257000D02*
X173736000Y-150876000D01*
X173736000Y-150876000D02*
X173736000Y-148590000D01*
X173355000Y-151638000D02*
X173736000Y-151257000D01*
X172847000Y-151638000D02*
X173355000Y-151638000D01*
X172466000Y-151257000D02*
X172847000Y-151638000D01*
X175006000Y-148590000D02*
X175006000Y-151257000D01*
X194056000Y-151257000D02*
X194056000Y-148590000D01*
X193675000Y-151638000D02*
X194056000Y-151257000D01*
X175387000Y-151638000D02*
X193675000Y-151638000D01*
X175006000Y-151257000D02*
X175387000Y-151638000D01*
X176276000Y-142240000D02*
X176276000Y-139065000D01*
X176276000Y-139065000D02*
X175641000Y-138430000D01*
X195326000Y-148590000D02*
X195326000Y-150876000D01*
X175006000Y-139065000D02*
X175006000Y-142240000D01*
X175641000Y-138430000D02*
X175006000Y-139065000D01*
X158242000Y-139192000D02*
X173736000Y-139192000D01*
X196596000Y-139192000D02*
X196596000Y-142240000D01*
X156972000Y-142240000D02*
X156972000Y-139573000D01*
X158242000Y-139192000D02*
X158242000Y-142240000D01*
X158242000Y-139192000D02*
X158242000Y-139192000D01*
X157353000Y-139192000D02*
X157607000Y-139192000D01*
X157607000Y-139192000D02*
X158242000Y-139192000D01*
X156972000Y-139573000D02*
X157353000Y-139192000D01*
X195326000Y-142240000D02*
X195326000Y-139954000D01*
X156972000Y-152527000D02*
X156972000Y-148590000D01*
X191516000Y-142240000D02*
X191516000Y-139954000D01*
X154432000Y-148590000D02*
X154432000Y-151257000D01*
X155702000Y-151257000D02*
X155702000Y-148590000D01*
X155448000Y-151511000D02*
X155702000Y-151257000D01*
X154686000Y-151511000D02*
X155448000Y-151511000D01*
X154432000Y-151257000D02*
X154686000Y-151511000D01*
M02*
