M48
;DRILL file {KiCad 4.0.5+dfsg1-4~bpo8+1} date Sun Apr 30 20:15:18 2017
;FORMAT={-:-/ absolute / metric / decimal}
FMAT,2
METRIC,TZ
T1C0.400
T2C1.016
%
G90
G05
M71
T1
X144.964Y-86.29
X145.034Y-88.29
X145.034Y-90.29
X145.034Y-92.329
X145.034Y-94.29
X145.034Y-96.266
X148.717Y-124.333
X151.892Y-107.315
X151.892Y-151.511
X153.416Y-106.299
X153.416Y-108.331
X153.416Y-110.363
X153.416Y-132.334
X155.702Y-151.257
X156.972Y-152.527
X159.512Y-101.346
X159.512Y-140.589
X166.624Y-86.233
X166.624Y-88.265
X166.624Y-90.297
X166.624Y-92.329
X166.624Y-94.234
X166.624Y-96.266
X166.624Y-124.27
X169.926Y-107.315
X169.926Y-150.876
X173.736Y-139.192
X173.736Y-150.876
X175.641Y-138.43
X176.276Y-147.32
X178.054Y-85.344
X178.054Y-106.299
X178.054Y-108.331
X178.054Y-110.236
X178.054Y-132.207
X179.578Y-101.981
X179.578Y-134.62
X180.975Y-88.265
X183.134Y-150.876
X186.69Y-92.71
X187.96Y-82.55
X190.246Y-139.954
X190.246Y-147.066
X191.516Y-139.954
X191.516Y-150.876
X192.278Y-91.44
X192.786Y-134.62
X192.786Y-139.954
X192.786Y-147.066
X194.056Y-139.954
X195.326Y-139.954
X195.326Y-150.876
X196.596Y-139.192
X215.9Y-132.207
X218.504Y-124.27
T2
X209.55Y-82.55
X209.55Y-85.09
X209.55Y-87.63
X209.55Y-90.17
X209.55Y-92.71
X209.55Y-95.25
X209.55Y-97.79
X209.55Y-100.33
X209.55Y-102.87
X209.55Y-105.41
X209.55Y-107.95
X209.55Y-110.49
X212.09Y-82.55
X212.09Y-85.09
X212.09Y-87.63
X212.09Y-90.17
X212.09Y-92.71
X212.09Y-95.25
X212.09Y-97.79
X212.09Y-100.33
X212.09Y-102.87
X212.09Y-105.41
X212.09Y-107.95
X212.09Y-110.49
T0
M30
