G04 #@! TF.FileFunction,Soldermask,Top*
%FSLAX46Y46*%
G04 Gerber Fmt 4.6, Leading zero omitted, Abs format (unit mm)*
G04 Created by KiCad (PCBNEW 4.0.5+dfsg1-4~bpo8+1) date Thu Jun 29 19:36:04 2017*
%MOMM*%
%LPD*%
G01*
G04 APERTURE LIST*
%ADD10C,0.100000*%
%ADD11C,0.150000*%
%ADD12R,1.300000X0.900000*%
%ADD13R,2.127200X2.127200*%
%ADD14O,2.127200X2.127200*%
%ADD15R,2.600000X1.000000*%
%ADD16R,3.000000X2.200000*%
%ADD17R,0.908000X1.543000*%
%ADD18C,2.540000*%
%ADD19C,4.400000*%
%ADD20R,0.900000X1.300000*%
%ADD21R,3.100000X2.950000*%
G04 APERTURE END LIST*
D10*
D11*
X134500000Y-72000000D02*
X134500000Y-150250000D01*
X208250000Y-72000000D02*
X134500000Y-72000000D01*
X208250000Y-150250000D02*
X208250000Y-72000000D01*
X134500000Y-150250000D02*
X208250000Y-150250000D01*
D12*
X164719000Y-135822000D03*
X164719000Y-137322000D03*
D13*
X193500000Y-82500000D03*
D14*
X196040000Y-82500000D03*
X193500000Y-85040000D03*
X196040000Y-85040000D03*
X193500000Y-87580000D03*
X196040000Y-87580000D03*
X193500000Y-90120000D03*
X196040000Y-90120000D03*
X193500000Y-92660000D03*
X196040000Y-92660000D03*
X193500000Y-95200000D03*
X196040000Y-95200000D03*
X193500000Y-97740000D03*
X196040000Y-97740000D03*
X193500000Y-100280000D03*
X196040000Y-100280000D03*
X193500000Y-102820000D03*
X196040000Y-102820000D03*
X193500000Y-105360000D03*
X196040000Y-105360000D03*
X193500000Y-107900000D03*
X196040000Y-107900000D03*
X193500000Y-110440000D03*
X196040000Y-110440000D03*
D15*
X172680000Y-85290000D03*
X172680000Y-86290000D03*
X172680000Y-87290000D03*
X172680000Y-88290000D03*
X172680000Y-89290000D03*
X172680000Y-90290000D03*
X172680000Y-91290000D03*
X172680000Y-92290000D03*
X172680000Y-93290000D03*
X172680000Y-94290000D03*
X172680000Y-95290000D03*
X172680000Y-96290000D03*
X172680000Y-97290000D03*
X172680000Y-98290000D03*
X172680000Y-99290000D03*
X172680000Y-100290000D03*
X172680000Y-101290000D03*
X172680000Y-102290000D03*
X172680000Y-103290000D03*
X172680000Y-104290000D03*
X172680000Y-105290000D03*
X172680000Y-106290000D03*
X172680000Y-107290000D03*
X172680000Y-108290000D03*
X172680000Y-109290000D03*
X172680000Y-110290000D03*
D16*
X170280000Y-82690000D03*
X170280000Y-112890000D03*
D15*
X148550000Y-85290000D03*
X148550000Y-86290000D03*
X148550000Y-87290000D03*
X148550000Y-88290000D03*
X148550000Y-89290000D03*
X148550000Y-90290000D03*
X148550000Y-91290000D03*
X148550000Y-92290000D03*
X148550000Y-93290000D03*
X148550000Y-94290000D03*
X148550000Y-95290000D03*
X148550000Y-96290000D03*
X148550000Y-97290000D03*
X148550000Y-98290000D03*
X148550000Y-99290000D03*
X148550000Y-100290000D03*
X148550000Y-101290000D03*
X148550000Y-102290000D03*
X148550000Y-103290000D03*
X148550000Y-104290000D03*
X148550000Y-105290000D03*
X148550000Y-106290000D03*
X148550000Y-107290000D03*
X148550000Y-108290000D03*
X148550000Y-109290000D03*
X148550000Y-110290000D03*
D16*
X146150000Y-82690000D03*
X146150000Y-112890000D03*
D12*
X204470000Y-135798000D03*
X204470000Y-134298000D03*
D17*
X169926000Y-139620000D03*
X171196000Y-139620000D03*
X172466000Y-139620000D03*
X173736000Y-139620000D03*
X175006000Y-139620000D03*
X176276000Y-139620000D03*
X177546000Y-139620000D03*
X177546000Y-133270000D03*
X176276000Y-133270000D03*
X173736000Y-133270000D03*
X172466000Y-133270000D03*
X171196000Y-133270000D03*
X169926000Y-133270000D03*
X175006000Y-133270000D03*
X188976000Y-139620000D03*
X190246000Y-139620000D03*
X191516000Y-139620000D03*
X192786000Y-139620000D03*
X194056000Y-139620000D03*
X195326000Y-139620000D03*
X196596000Y-139620000D03*
X196596000Y-133270000D03*
X195326000Y-133270000D03*
X192786000Y-133270000D03*
X191516000Y-133270000D03*
X190246000Y-133270000D03*
X188976000Y-133270000D03*
X194056000Y-133270000D03*
X151892000Y-139620000D03*
X153162000Y-139620000D03*
X154432000Y-139620000D03*
X155702000Y-139620000D03*
X156972000Y-139620000D03*
X158242000Y-139620000D03*
X159512000Y-139620000D03*
X159512000Y-133270000D03*
X158242000Y-133270000D03*
X155702000Y-133270000D03*
X154432000Y-133270000D03*
X153162000Y-133270000D03*
X151892000Y-133270000D03*
X156972000Y-133270000D03*
D12*
X182499000Y-135822000D03*
X182499000Y-137322000D03*
X200787000Y-135822000D03*
X200787000Y-137322000D03*
D18*
X146000000Y-145750000D03*
X146050000Y-76454000D03*
X196750000Y-145750000D03*
D19*
X138938000Y-76454000D03*
X139000000Y-145750000D03*
X203750000Y-145750000D03*
X203750000Y-76500000D03*
D20*
X171000000Y-130250000D03*
X172500000Y-130250000D03*
X152750000Y-130250000D03*
X154250000Y-130250000D03*
X165750000Y-139750000D03*
X167250000Y-139750000D03*
D12*
X147250000Y-135750000D03*
X147250000Y-137250000D03*
D21*
X197750000Y-125675000D03*
X197750000Y-119325000D03*
X170250000Y-125675000D03*
X170250000Y-119325000D03*
X145000000Y-125425000D03*
X145000000Y-119075000D03*
M02*
