M48
;DRILL file {KiCad 4.0.5+dfsg1-4~bpo8+1} date Thu Jun 29 19:36:13 2017
;FORMAT={-:-/ absolute / metric / decimal}
FMAT,2
METRIC,TZ
T1C0.350
T2C1.016
%
G90
G05
M71
T1
X144.964Y-86.29
X145.034Y-88.29
X145.034Y-90.29
X145.034Y-92.329
X145.034Y-94.29
X145.034Y-96.266
X149.Y-119.25
X151.892Y-107.315
X151.892Y-142.5
X153.25Y-127.75
X153.25Y-137.25
X153.416Y-106.299
X153.416Y-108.331
X153.416Y-110.363
X153.5Y-125.25
X156.972Y-143.557
X159.5Y-131.5
X159.512Y-101.346
X165.75Y-135.75
X165.75Y-138.25
X166.5Y-86.25
X166.5Y-88.25
X166.5Y-90.25
X166.5Y-92.25
X166.5Y-94.25
X166.5Y-96.25
X166.5Y-119.27
X167.25Y-141.75
X169.926Y-107.315
X170.Y-141.75
X172.5Y-142.75
X174.Y-128.75
X174.554Y-85.344
X175.Y-125.75
X175.054Y-106.299
X175.054Y-108.331
X175.054Y-110.236
X175.75Y-129.25
X176.Y-127.75
X176.078Y-101.981
X176.25Y-138.25
X176.75Y-86.25
X177.475Y-88.265
X178.75Y-83.75
X178.75Y-127.75
X178.75Y-131.
X189.Y-141.75
X190.25Y-128.5
X190.25Y-131.
X190.25Y-141.75
X191.5Y-127.75
X191.5Y-131.
X191.5Y-141.75
X192.75Y-141.75
X194.25Y-127.75
X194.25Y-131.
X195.326Y-130.984
X195.326Y-141.906
X196.5Y-130.25
X201.25Y-125.5
X203.25Y-119.25
X204.5Y-128.5
T2
X193.5Y-82.5
X193.5Y-85.04
X193.5Y-87.58
X193.5Y-90.12
X193.5Y-92.66
X193.5Y-95.2
X193.5Y-97.74
X193.5Y-100.28
X193.5Y-102.82
X193.5Y-105.36
X193.5Y-107.9
X193.5Y-110.44
X196.04Y-82.5
X196.04Y-85.04
X196.04Y-87.58
X196.04Y-90.12
X196.04Y-92.66
X196.04Y-95.2
X196.04Y-97.74
X196.04Y-100.28
X196.04Y-102.82
X196.04Y-105.36
X196.04Y-107.9
X196.04Y-110.44
T0
M30
