G04 #@! TF.FileFunction,Copper,L1,Top,Signal*
%FSLAX46Y46*%
G04 Gerber Fmt 4.6, Leading zero omitted, Abs format (unit mm)*
G04 Created by KiCad (PCBNEW 4.0.5+dfsg1-4~bpo8+1) date Thu Jun 29 19:36:04 2017*
%MOMM*%
%LPD*%
G01*
G04 APERTURE LIST*
%ADD10C,0.100000*%
%ADD11C,0.150000*%
%ADD12C,0.300000*%
%ADD13R,0.900000X0.500000*%
%ADD14R,1.727200X1.727200*%
%ADD15O,1.727200X1.727200*%
%ADD16R,2.200000X0.600000*%
%ADD17R,2.600000X1.800000*%
%ADD18R,0.508000X1.143000*%
%ADD19C,1.000000*%
%ADD20R,0.500000X0.900000*%
%ADD21R,2.700000X2.550000*%
%ADD22C,0.800000*%
%ADD23C,0.400000*%
%ADD24C,0.250000*%
%ADD25C,1.000000*%
G04 APERTURE END LIST*
D10*
D11*
X134500000Y-72000000D02*
X134500000Y-150250000D01*
X208250000Y-72000000D02*
X134500000Y-72000000D01*
X208250000Y-150250000D02*
X208250000Y-72000000D01*
X134500000Y-150250000D02*
X208250000Y-150250000D01*
D12*
X155285717Y-76750000D02*
X156000003Y-76750000D01*
X155142860Y-77178571D02*
X155642860Y-75678571D01*
X156142860Y-77178571D01*
X157428574Y-77178571D02*
X156571431Y-77178571D01*
X157000003Y-77178571D02*
X157000003Y-75678571D01*
X156857146Y-75892857D01*
X156714288Y-76035714D01*
X156571431Y-76107143D01*
X158357145Y-75678571D02*
X158500002Y-75678571D01*
X158642859Y-75750000D01*
X158714288Y-75821429D01*
X158785717Y-75964286D01*
X158857145Y-76250000D01*
X158857145Y-76607143D01*
X158785717Y-76892857D01*
X158714288Y-77035714D01*
X158642859Y-77107143D01*
X158500002Y-77178571D01*
X158357145Y-77178571D01*
X158214288Y-77107143D01*
X158142859Y-77035714D01*
X158071431Y-76892857D01*
X158000002Y-76607143D01*
X158000002Y-76250000D01*
X158071431Y-75964286D01*
X158142859Y-75821429D01*
X158214288Y-75750000D01*
X158357145Y-75678571D01*
X160285716Y-77178571D02*
X159428573Y-77178571D01*
X159857145Y-77178571D02*
X159857145Y-75678571D01*
X159714288Y-75892857D01*
X159571430Y-76035714D01*
X159428573Y-76107143D01*
X160857144Y-75821429D02*
X160928573Y-75750000D01*
X161071430Y-75678571D01*
X161428573Y-75678571D01*
X161571430Y-75750000D01*
X161642859Y-75821429D01*
X161714287Y-75964286D01*
X161714287Y-76107143D01*
X161642859Y-76321429D01*
X160785716Y-77178571D01*
X161714287Y-77178571D01*
X163928572Y-77750000D02*
X163857144Y-77678571D01*
X163714287Y-77464286D01*
X163642858Y-77321429D01*
X163571429Y-77107143D01*
X163500001Y-76750000D01*
X163500001Y-76464286D01*
X163571429Y-76107143D01*
X163642858Y-75892857D01*
X163714287Y-75750000D01*
X163857144Y-75535714D01*
X163928572Y-75464286D01*
X165357144Y-77035714D02*
X165285715Y-77107143D01*
X165071429Y-77178571D01*
X164928572Y-77178571D01*
X164714287Y-77107143D01*
X164571429Y-76964286D01*
X164500001Y-76821429D01*
X164428572Y-76535714D01*
X164428572Y-76321429D01*
X164500001Y-76035714D01*
X164571429Y-75892857D01*
X164714287Y-75750000D01*
X164928572Y-75678571D01*
X165071429Y-75678571D01*
X165285715Y-75750000D01*
X165357144Y-75821429D01*
X165857144Y-77750000D02*
X165928572Y-77678571D01*
X166071429Y-77464286D01*
X166142858Y-77321429D01*
X166214287Y-77107143D01*
X166285715Y-76750000D01*
X166285715Y-76464286D01*
X166214287Y-76107143D01*
X166142858Y-75892857D01*
X166071429Y-75750000D01*
X165928572Y-75535714D01*
X165857144Y-75464286D01*
X168071429Y-77107143D02*
X168285715Y-77178571D01*
X168642858Y-77178571D01*
X168785715Y-77107143D01*
X168857144Y-77035714D01*
X168928572Y-76892857D01*
X168928572Y-76750000D01*
X168857144Y-76607143D01*
X168785715Y-76535714D01*
X168642858Y-76464286D01*
X168357144Y-76392857D01*
X168214286Y-76321429D01*
X168142858Y-76250000D01*
X168071429Y-76107143D01*
X168071429Y-75964286D01*
X168142858Y-75821429D01*
X168214286Y-75750000D01*
X168357144Y-75678571D01*
X168714286Y-75678571D01*
X168928572Y-75750000D01*
X169785715Y-77178571D02*
X169642857Y-77107143D01*
X169571429Y-77035714D01*
X169500000Y-76892857D01*
X169500000Y-76464286D01*
X169571429Y-76321429D01*
X169642857Y-76250000D01*
X169785715Y-76178571D01*
X170000000Y-76178571D01*
X170142857Y-76250000D01*
X170214286Y-76321429D01*
X170285715Y-76464286D01*
X170285715Y-76892857D01*
X170214286Y-77035714D01*
X170142857Y-77107143D01*
X170000000Y-77178571D01*
X169785715Y-77178571D01*
X169642857Y-75678571D02*
X169714286Y-75750000D01*
X169642857Y-75821429D01*
X169571429Y-75750000D01*
X169642857Y-75678571D01*
X169642857Y-75821429D01*
X170214286Y-75678571D02*
X170285715Y-75750000D01*
X170214286Y-75821429D01*
X170142857Y-75750000D01*
X170214286Y-75678571D01*
X170214286Y-75821429D01*
X170928572Y-77178571D02*
X170928572Y-76178571D01*
X170928572Y-76464286D02*
X171000000Y-76321429D01*
X171071429Y-76250000D01*
X171214286Y-76178571D01*
X171357143Y-76178571D01*
X172428571Y-77107143D02*
X172285714Y-77178571D01*
X172000000Y-77178571D01*
X171857143Y-77107143D01*
X171785714Y-76964286D01*
X171785714Y-76392857D01*
X171857143Y-76250000D01*
X172000000Y-76178571D01*
X172285714Y-76178571D01*
X172428571Y-76250000D01*
X172500000Y-76392857D01*
X172500000Y-76535714D01*
X171785714Y-76678571D01*
X173142857Y-76178571D02*
X173142857Y-77178571D01*
X173142857Y-76321429D02*
X173214285Y-76250000D01*
X173357143Y-76178571D01*
X173571428Y-76178571D01*
X173714285Y-76250000D01*
X173785714Y-76392857D01*
X173785714Y-77178571D01*
X176428571Y-75750000D02*
X176285714Y-75678571D01*
X176071428Y-75678571D01*
X175857143Y-75750000D01*
X175714285Y-75892857D01*
X175642857Y-76035714D01*
X175571428Y-76321429D01*
X175571428Y-76535714D01*
X175642857Y-76821429D01*
X175714285Y-76964286D01*
X175857143Y-77107143D01*
X176071428Y-77178571D01*
X176214285Y-77178571D01*
X176428571Y-77107143D01*
X176500000Y-77035714D01*
X176500000Y-76535714D01*
X176214285Y-76535714D01*
X177785714Y-76178571D02*
X177785714Y-77178571D01*
X177142857Y-76178571D02*
X177142857Y-76964286D01*
X177214285Y-77107143D01*
X177357143Y-77178571D01*
X177571428Y-77178571D01*
X177714285Y-77107143D01*
X177785714Y-77035714D01*
X178428571Y-77107143D02*
X178571428Y-77178571D01*
X178857143Y-77178571D01*
X179000000Y-77107143D01*
X179071428Y-76964286D01*
X179071428Y-76892857D01*
X179000000Y-76750000D01*
X178857143Y-76678571D01*
X178642857Y-76678571D01*
X178500000Y-76607143D01*
X178428571Y-76464286D01*
X178428571Y-76392857D01*
X178500000Y-76250000D01*
X178642857Y-76178571D01*
X178857143Y-76178571D01*
X179000000Y-76250000D01*
X179500000Y-76178571D02*
X180071429Y-76178571D01*
X179714286Y-75678571D02*
X179714286Y-76964286D01*
X179785714Y-77107143D01*
X179928572Y-77178571D01*
X180071429Y-77178571D01*
X181642857Y-75821429D02*
X181714286Y-75750000D01*
X181857143Y-75678571D01*
X182214286Y-75678571D01*
X182357143Y-75750000D01*
X182428572Y-75821429D01*
X182500000Y-75964286D01*
X182500000Y-76107143D01*
X182428572Y-76321429D01*
X181571429Y-77178571D01*
X182500000Y-77178571D01*
X183428571Y-75678571D02*
X183571428Y-75678571D01*
X183714285Y-75750000D01*
X183785714Y-75821429D01*
X183857143Y-75964286D01*
X183928571Y-76250000D01*
X183928571Y-76607143D01*
X183857143Y-76892857D01*
X183785714Y-77035714D01*
X183714285Y-77107143D01*
X183571428Y-77178571D01*
X183428571Y-77178571D01*
X183285714Y-77107143D01*
X183214285Y-77035714D01*
X183142857Y-76892857D01*
X183071428Y-76607143D01*
X183071428Y-76250000D01*
X183142857Y-75964286D01*
X183214285Y-75821429D01*
X183285714Y-75750000D01*
X183428571Y-75678571D01*
X185357142Y-77178571D02*
X184499999Y-77178571D01*
X184928571Y-77178571D02*
X184928571Y-75678571D01*
X184785714Y-75892857D01*
X184642856Y-76035714D01*
X184499999Y-76107143D01*
X185857142Y-75678571D02*
X186857142Y-75678571D01*
X186214285Y-77178571D01*
X187428570Y-76607143D02*
X188571427Y-76607143D01*
X189571427Y-75678571D02*
X189714284Y-75678571D01*
X189857141Y-75750000D01*
X189928570Y-75821429D01*
X189999999Y-75964286D01*
X190071427Y-76250000D01*
X190071427Y-76607143D01*
X189999999Y-76892857D01*
X189928570Y-77035714D01*
X189857141Y-77107143D01*
X189714284Y-77178571D01*
X189571427Y-77178571D01*
X189428570Y-77107143D01*
X189357141Y-77035714D01*
X189285713Y-76892857D01*
X189214284Y-76607143D01*
X189214284Y-76250000D01*
X189285713Y-75964286D01*
X189357141Y-75821429D01*
X189428570Y-75750000D01*
X189571427Y-75678571D01*
X191357141Y-75678571D02*
X191071427Y-75678571D01*
X190928570Y-75750000D01*
X190857141Y-75821429D01*
X190714284Y-76035714D01*
X190642855Y-76321429D01*
X190642855Y-76892857D01*
X190714284Y-77035714D01*
X190785712Y-77107143D01*
X190928570Y-77178571D01*
X191214284Y-77178571D01*
X191357141Y-77107143D01*
X191428570Y-77035714D01*
X191499998Y-76892857D01*
X191499998Y-76535714D01*
X191428570Y-76392857D01*
X191357141Y-76321429D01*
X191214284Y-76250000D01*
X190928570Y-76250000D01*
X190785712Y-76321429D01*
X190714284Y-76392857D01*
X190642855Y-76535714D01*
X192142855Y-76607143D02*
X193285712Y-76607143D01*
X194285712Y-75678571D02*
X194428569Y-75678571D01*
X194571426Y-75750000D01*
X194642855Y-75821429D01*
X194714284Y-75964286D01*
X194785712Y-76250000D01*
X194785712Y-76607143D01*
X194714284Y-76892857D01*
X194642855Y-77035714D01*
X194571426Y-77107143D01*
X194428569Y-77178571D01*
X194285712Y-77178571D01*
X194142855Y-77107143D01*
X194071426Y-77035714D01*
X193999998Y-76892857D01*
X193928569Y-76607143D01*
X193928569Y-76250000D01*
X193999998Y-75964286D01*
X194071426Y-75821429D01*
X194142855Y-75750000D01*
X194285712Y-75678571D01*
X196142855Y-75678571D02*
X195428569Y-75678571D01*
X195357140Y-76392857D01*
X195428569Y-76321429D01*
X195571426Y-76250000D01*
X195928569Y-76250000D01*
X196071426Y-76321429D01*
X196142855Y-76392857D01*
X196214283Y-76535714D01*
X196214283Y-76892857D01*
X196142855Y-77035714D01*
X196071426Y-77107143D01*
X195928569Y-77178571D01*
X195571426Y-77178571D01*
X195428569Y-77107143D01*
X195357140Y-77035714D01*
X149464286Y-76392857D02*
X148964286Y-76392857D01*
X148964286Y-77178571D02*
X148964286Y-75678571D01*
X149678572Y-75678571D01*
X150250000Y-77178571D02*
X150250000Y-76178571D01*
X150250000Y-76464286D02*
X150321428Y-76321429D01*
X150392857Y-76250000D01*
X150535714Y-76178571D01*
X150678571Y-76178571D01*
X151392857Y-77178571D02*
X151249999Y-77107143D01*
X151178571Y-77035714D01*
X151107142Y-76892857D01*
X151107142Y-76464286D01*
X151178571Y-76321429D01*
X151249999Y-76250000D01*
X151392857Y-76178571D01*
X151607142Y-76178571D01*
X151749999Y-76250000D01*
X151821428Y-76321429D01*
X151892857Y-76464286D01*
X151892857Y-76892857D01*
X151821428Y-77035714D01*
X151749999Y-77107143D01*
X151607142Y-77178571D01*
X151392857Y-77178571D01*
X152535714Y-76178571D02*
X152535714Y-77178571D01*
X152535714Y-76321429D02*
X152607142Y-76250000D01*
X152750000Y-76178571D01*
X152964285Y-76178571D01*
X153107142Y-76250000D01*
X153178571Y-76392857D01*
X153178571Y-77178571D01*
X153678571Y-76178571D02*
X154250000Y-76178571D01*
X153892857Y-75678571D02*
X153892857Y-76964286D01*
X153964285Y-77107143D01*
X154107143Y-77178571D01*
X154250000Y-77178571D01*
D13*
X164719000Y-135822000D03*
X164719000Y-137322000D03*
D14*
X193500000Y-82500000D03*
D15*
X196040000Y-82500000D03*
X193500000Y-85040000D03*
X196040000Y-85040000D03*
X193500000Y-87580000D03*
X196040000Y-87580000D03*
X193500000Y-90120000D03*
X196040000Y-90120000D03*
X193500000Y-92660000D03*
X196040000Y-92660000D03*
X193500000Y-95200000D03*
X196040000Y-95200000D03*
X193500000Y-97740000D03*
X196040000Y-97740000D03*
X193500000Y-100280000D03*
X196040000Y-100280000D03*
X193500000Y-102820000D03*
X196040000Y-102820000D03*
X193500000Y-105360000D03*
X196040000Y-105360000D03*
X193500000Y-107900000D03*
X196040000Y-107900000D03*
X193500000Y-110440000D03*
X196040000Y-110440000D03*
D16*
X172680000Y-85290000D03*
X172680000Y-86290000D03*
X172680000Y-87290000D03*
X172680000Y-88290000D03*
X172680000Y-89290000D03*
X172680000Y-90290000D03*
X172680000Y-91290000D03*
X172680000Y-92290000D03*
X172680000Y-93290000D03*
X172680000Y-94290000D03*
X172680000Y-95290000D03*
X172680000Y-96290000D03*
X172680000Y-97290000D03*
X172680000Y-98290000D03*
X172680000Y-99290000D03*
X172680000Y-100290000D03*
X172680000Y-101290000D03*
X172680000Y-102290000D03*
X172680000Y-103290000D03*
X172680000Y-104290000D03*
X172680000Y-105290000D03*
X172680000Y-106290000D03*
X172680000Y-107290000D03*
X172680000Y-108290000D03*
X172680000Y-109290000D03*
X172680000Y-110290000D03*
D17*
X170280000Y-82690000D03*
X170280000Y-112890000D03*
D16*
X148550000Y-85290000D03*
X148550000Y-86290000D03*
X148550000Y-87290000D03*
X148550000Y-88290000D03*
X148550000Y-89290000D03*
X148550000Y-90290000D03*
X148550000Y-91290000D03*
X148550000Y-92290000D03*
X148550000Y-93290000D03*
X148550000Y-94290000D03*
X148550000Y-95290000D03*
X148550000Y-96290000D03*
X148550000Y-97290000D03*
X148550000Y-98290000D03*
X148550000Y-99290000D03*
X148550000Y-100290000D03*
X148550000Y-101290000D03*
X148550000Y-102290000D03*
X148550000Y-103290000D03*
X148550000Y-104290000D03*
X148550000Y-105290000D03*
X148550000Y-106290000D03*
X148550000Y-107290000D03*
X148550000Y-108290000D03*
X148550000Y-109290000D03*
X148550000Y-110290000D03*
D17*
X146150000Y-82690000D03*
X146150000Y-112890000D03*
D13*
X204470000Y-135798000D03*
X204470000Y-134298000D03*
D18*
X169926000Y-139620000D03*
X171196000Y-139620000D03*
X172466000Y-139620000D03*
X173736000Y-139620000D03*
X175006000Y-139620000D03*
X176276000Y-139620000D03*
X177546000Y-139620000D03*
X177546000Y-133270000D03*
X176276000Y-133270000D03*
X173736000Y-133270000D03*
X172466000Y-133270000D03*
X171196000Y-133270000D03*
X169926000Y-133270000D03*
X175006000Y-133270000D03*
X188976000Y-139620000D03*
X190246000Y-139620000D03*
X191516000Y-139620000D03*
X192786000Y-139620000D03*
X194056000Y-139620000D03*
X195326000Y-139620000D03*
X196596000Y-139620000D03*
X196596000Y-133270000D03*
X195326000Y-133270000D03*
X192786000Y-133270000D03*
X191516000Y-133270000D03*
X190246000Y-133270000D03*
X188976000Y-133270000D03*
X194056000Y-133270000D03*
X151892000Y-139620000D03*
X153162000Y-139620000D03*
X154432000Y-139620000D03*
X155702000Y-139620000D03*
X156972000Y-139620000D03*
X158242000Y-139620000D03*
X159512000Y-139620000D03*
X159512000Y-133270000D03*
X158242000Y-133270000D03*
X155702000Y-133270000D03*
X154432000Y-133270000D03*
X153162000Y-133270000D03*
X151892000Y-133270000D03*
X156972000Y-133270000D03*
D13*
X182499000Y-135822000D03*
X182499000Y-137322000D03*
X200787000Y-135822000D03*
X200787000Y-137322000D03*
D19*
X146000000Y-145750000D03*
X146050000Y-76454000D03*
X196750000Y-145750000D03*
D20*
X171000000Y-130250000D03*
X172500000Y-130250000D03*
X152750000Y-130250000D03*
X154250000Y-130250000D03*
X165750000Y-139750000D03*
X167250000Y-139750000D03*
D13*
X147250000Y-135750000D03*
X147250000Y-137250000D03*
D21*
X197750000Y-125675000D03*
X197750000Y-119325000D03*
X170250000Y-125675000D03*
X170250000Y-119325000D03*
X145000000Y-125425000D03*
X145000000Y-119075000D03*
D22*
X165750000Y-135750000D03*
X165750000Y-138250000D03*
X201250000Y-125500000D03*
X175000000Y-125750000D03*
X153500000Y-125250000D03*
X175054000Y-110236000D03*
X175054000Y-108331000D03*
X175054000Y-106299000D03*
X153416000Y-110363000D03*
X153416000Y-108331000D03*
X153416000Y-106299000D03*
X166500000Y-96250000D03*
X166500000Y-94250000D03*
X166500000Y-92250000D03*
X166500000Y-90250000D03*
X166500000Y-88250000D03*
X166500000Y-86250000D03*
X166500000Y-119270000D03*
X203250000Y-119250000D03*
X149000000Y-119250000D03*
X145034000Y-88290000D03*
X145034000Y-90290000D03*
X145034000Y-92329000D03*
X145034000Y-94290000D03*
X144964000Y-86290000D03*
X145034000Y-96266000D03*
X176250000Y-138250000D03*
X178750000Y-131000000D03*
X178750000Y-127750000D03*
X178750000Y-83750000D03*
X191500000Y-127750000D03*
X191500000Y-131000000D03*
X190250000Y-141750000D03*
X176750000Y-86250000D03*
X151892000Y-142500000D03*
X151892000Y-107315000D03*
X194250000Y-131000000D03*
X192750000Y-141750000D03*
X194250000Y-127750000D03*
X174554000Y-85344000D03*
X177475000Y-88265000D03*
X169926000Y-107315000D03*
X170000000Y-141750000D03*
X176078000Y-101981000D03*
X176000000Y-127750000D03*
X159512000Y-101346000D03*
X159500000Y-131500000D03*
X204500000Y-128500000D03*
X190250000Y-128500000D03*
X190250000Y-131000000D03*
X189000000Y-141750000D03*
X195326000Y-141906000D03*
X175750000Y-129250000D03*
X174000000Y-128750000D03*
X196500000Y-130250000D03*
X156972000Y-143557000D03*
X195326000Y-130984000D03*
X167250000Y-141750000D03*
X191500000Y-141750000D03*
X172500000Y-142750000D03*
X153250000Y-127750000D03*
X153250000Y-137250000D03*
D23*
X197750000Y-125675000D02*
X200787000Y-128712000D01*
X200787000Y-128712000D02*
X200787000Y-135822000D01*
X199825000Y-127750000D02*
X197750000Y-125675000D01*
X165750000Y-139750000D02*
X165750000Y-138250000D01*
X165750000Y-135750000D02*
X165750000Y-135822000D01*
X165750000Y-135822000D02*
X165750000Y-135750000D01*
X165750000Y-135750000D02*
X165750000Y-135822000D01*
D24*
X169926000Y-133270000D02*
X169926000Y-131324000D01*
X169926000Y-131324000D02*
X171000000Y-130250000D01*
D25*
X201250000Y-125500000D02*
X201075000Y-125675000D01*
X201075000Y-125675000D02*
X197750000Y-125675000D01*
D24*
X147250000Y-135750000D02*
X149730000Y-133270000D01*
X149730000Y-133270000D02*
X151892000Y-133270000D01*
X152750000Y-130250000D02*
X151892000Y-131108000D01*
X151892000Y-131108000D02*
X151892000Y-133270000D01*
D25*
X175000000Y-125750000D02*
X175000000Y-125675000D01*
X175000000Y-125675000D02*
X175000000Y-125750000D01*
X175000000Y-125750000D02*
X175000000Y-125675000D01*
X153500000Y-125250000D02*
X153500000Y-125425000D01*
X153500000Y-125425000D02*
X153500000Y-125250000D01*
X153500000Y-125250000D02*
X153500000Y-125425000D01*
X170250000Y-125675000D02*
X175000000Y-125675000D01*
X175000000Y-125675000D02*
X197750000Y-125675000D01*
X145000000Y-125425000D02*
X153500000Y-125425000D01*
X153500000Y-125425000D02*
X170000000Y-125425000D01*
X170000000Y-125425000D02*
X170250000Y-125675000D01*
D23*
X182499000Y-135822000D02*
X165750000Y-135822000D01*
X165750000Y-135822000D02*
X164719000Y-135822000D01*
X200787000Y-135822000D02*
X182499000Y-135822000D01*
X164720102Y-135820898D02*
X164719000Y-135822000D01*
X204482000Y-135810000D02*
X204470000Y-135822000D01*
X204470000Y-135822000D02*
X200787000Y-135822000D01*
X200799000Y-135798000D02*
X200787000Y-135810000D01*
D24*
X164719000Y-135822000D02*
X164719000Y-135048000D01*
X164719000Y-135048000D02*
X164338000Y-134667000D01*
X164338000Y-134667000D02*
X152273000Y-134667000D01*
X152273000Y-134667000D02*
X151892000Y-134286000D01*
X151892000Y-134286000D02*
X151892000Y-133270000D01*
X200787000Y-135810000D02*
X200787000Y-134921000D01*
X188976000Y-134159000D02*
X188976000Y-133270000D01*
X189357000Y-134540000D02*
X188976000Y-134159000D01*
X200406000Y-134540000D02*
X189357000Y-134540000D01*
X200787000Y-134921000D02*
X200406000Y-134540000D01*
X182499000Y-135822000D02*
X182499000Y-135048000D01*
X182499000Y-135048000D02*
X182118000Y-134667000D01*
X182118000Y-134667000D02*
X170307000Y-134667000D01*
X170307000Y-134667000D02*
X169926000Y-134286000D01*
X169926000Y-134286000D02*
X169926000Y-133270000D01*
X172680000Y-110290000D02*
X175000000Y-110290000D01*
X175000000Y-110290000D02*
X175054000Y-110236000D01*
X172680000Y-108290000D02*
X175013000Y-108290000D01*
X175013000Y-108290000D02*
X175054000Y-108331000D01*
X172680000Y-106290000D02*
X175045000Y-106290000D01*
X175045000Y-106290000D02*
X175054000Y-106299000D01*
X148550000Y-110290000D02*
X153343000Y-110290000D01*
X153343000Y-110290000D02*
X153416000Y-110363000D01*
X148550000Y-108290000D02*
X153375000Y-108290000D01*
X153375000Y-108290000D02*
X153416000Y-108331000D01*
X148550000Y-106290000D02*
X153407000Y-106290000D01*
X153407000Y-106290000D02*
X153416000Y-106299000D01*
D23*
X196596000Y-139620000D02*
X196596000Y-141346000D01*
X200787000Y-141213000D02*
X200787000Y-137322000D01*
X200000000Y-142000000D02*
X200787000Y-141213000D01*
X197250000Y-142000000D02*
X200000000Y-142000000D01*
X196596000Y-141346000D02*
X197250000Y-142000000D01*
X197750000Y-119325000D02*
X200925000Y-122500000D01*
X200925000Y-122500000D02*
X204750000Y-122500000D01*
D24*
X166500000Y-96250000D02*
X172640000Y-96250000D01*
X172640000Y-96250000D02*
X172680000Y-96290000D01*
X166500000Y-94250000D02*
X172640000Y-94250000D01*
X172640000Y-94250000D02*
X172680000Y-94290000D01*
X166500000Y-92250000D02*
X172640000Y-92250000D01*
X172640000Y-92250000D02*
X172680000Y-92290000D01*
X166500000Y-90250000D02*
X172640000Y-90250000D01*
X172640000Y-90250000D02*
X172680000Y-90290000D01*
X166500000Y-88250000D02*
X172640000Y-88250000D01*
X172640000Y-88250000D02*
X172680000Y-88290000D01*
X166500000Y-86250000D02*
X172640000Y-86250000D01*
X172640000Y-86250000D02*
X172680000Y-86290000D01*
D25*
X203175000Y-119325000D02*
X197750000Y-119325000D01*
X203250000Y-119250000D02*
X203175000Y-119325000D01*
D23*
X204920000Y-137334000D02*
X200799000Y-137334000D01*
X206250000Y-136004000D02*
X204920000Y-137334000D01*
X206250000Y-124000000D02*
X206250000Y-136004000D01*
X204750000Y-122500000D02*
X206250000Y-124000000D01*
D24*
X148550000Y-96290000D02*
X145058000Y-96290000D01*
X145058000Y-96290000D02*
X145034000Y-96266000D01*
D25*
X170250000Y-119325000D02*
X197750000Y-119325000D01*
X166624000Y-119270000D02*
X166500000Y-119270000D01*
X166500000Y-119270000D02*
X170195000Y-119270000D01*
X170195000Y-119270000D02*
X170250000Y-119325000D01*
X149000000Y-119250000D02*
X166604000Y-119250000D01*
X166604000Y-119250000D02*
X166624000Y-119270000D01*
X148825000Y-119075000D02*
X145000000Y-119075000D01*
X149000000Y-119250000D02*
X148825000Y-119075000D01*
X170307000Y-119270000D02*
X166624000Y-119270000D01*
D23*
X182499000Y-137322000D02*
X164719000Y-137322000D01*
X200787000Y-137322000D02*
X182499000Y-137322000D01*
D24*
X182499000Y-137322000D02*
X182499000Y-141525000D01*
X182499000Y-141525000D02*
X182118000Y-141906000D01*
X182118000Y-141906000D02*
X177927000Y-141906000D01*
X177927000Y-141906000D02*
X177546000Y-141525000D01*
X177546000Y-141525000D02*
X177546000Y-139620000D01*
D23*
X200799000Y-137334000D02*
X200787000Y-137322000D01*
D24*
X164719000Y-137322000D02*
X164719000Y-141398000D01*
X164719000Y-141398000D02*
X164338000Y-141779000D01*
X164338000Y-141779000D02*
X159893000Y-141779000D01*
X159893000Y-141779000D02*
X159512000Y-141398000D01*
X159512000Y-141398000D02*
X159512000Y-139620000D01*
X177546000Y-141525000D02*
X177546000Y-139620000D01*
X177927000Y-141906000D02*
X177546000Y-141525000D01*
X182118000Y-141906000D02*
X177927000Y-141906000D01*
X182499000Y-141525000D02*
X182118000Y-141906000D01*
X144907000Y-86233000D02*
X144964000Y-86290000D01*
X144964000Y-86290000D02*
X144907000Y-86233000D01*
X145034000Y-96266000D02*
X145058000Y-96290000D01*
X145058000Y-96290000D02*
X145034000Y-96266000D01*
X148550000Y-94290000D02*
X145034000Y-94290000D01*
X145034000Y-94290000D02*
X144963000Y-94290000D01*
X144963000Y-94290000D02*
X144907000Y-94234000D01*
X148550000Y-92290000D02*
X144946000Y-92290000D01*
X144946000Y-92290000D02*
X144907000Y-92329000D01*
X148550000Y-90290000D02*
X145034000Y-90290000D01*
X145034000Y-90290000D02*
X144914000Y-90290000D01*
X144914000Y-90290000D02*
X144907000Y-90297000D01*
X148550000Y-88290000D02*
X145034000Y-88290000D01*
X145034000Y-88290000D02*
X144932000Y-88290000D01*
X144932000Y-88290000D02*
X144907000Y-88265000D01*
X148550000Y-86290000D02*
X144964000Y-86290000D01*
X193450000Y-82500000D02*
X193500000Y-82500000D01*
X193500000Y-82500000D02*
X193450000Y-82500000D01*
X193450000Y-82500000D02*
X179950000Y-82550000D01*
X176213000Y-138287000D02*
X176276000Y-138350000D01*
X176250000Y-138250000D02*
X176213000Y-138287000D01*
X178750000Y-127750000D02*
X178750000Y-131000000D01*
X179950000Y-82550000D02*
X178750000Y-83750000D01*
X158242000Y-139620000D02*
X158242000Y-142160000D01*
X176276000Y-138350000D02*
X176276000Y-139620000D01*
X175895000Y-137969000D02*
X176276000Y-138350000D01*
X168656000Y-137969000D02*
X175895000Y-137969000D01*
X168275000Y-138350000D02*
X168656000Y-137969000D01*
X168275000Y-142160000D02*
X168275000Y-138350000D01*
X167894000Y-142541000D02*
X168275000Y-142160000D01*
X158623000Y-142541000D02*
X167894000Y-142541000D01*
X158242000Y-142160000D02*
X158623000Y-142541000D01*
X172680000Y-87290000D02*
X148550000Y-87290000D01*
X196040000Y-82500000D02*
X196040000Y-82373000D01*
X196040000Y-82373000D02*
X194742012Y-81007593D01*
X194742012Y-81007593D02*
X180250000Y-81000000D01*
X180250000Y-81000000D02*
X173974000Y-87276000D01*
X173974000Y-87276000D02*
X172721000Y-87249000D01*
X172721000Y-87249000D02*
X172680000Y-87290000D01*
X191516000Y-133270000D02*
X191516000Y-127766000D01*
X191516000Y-127766000D02*
X191500000Y-127750000D01*
X190246000Y-139620000D02*
X190246000Y-141746000D01*
X191516000Y-131016000D02*
X191516000Y-133270000D01*
X191500000Y-131000000D02*
X191516000Y-131016000D01*
X190246000Y-141746000D02*
X190250000Y-141750000D01*
X183250000Y-92710000D02*
X183210000Y-92710000D01*
X183210000Y-92710000D02*
X176750000Y-86250000D01*
X183190000Y-92710000D02*
X183250000Y-92710000D01*
X183250000Y-92710000D02*
X193500000Y-92660000D01*
X148550000Y-107290000D02*
X151867000Y-107290000D01*
X151892000Y-107315000D02*
X151867000Y-107290000D01*
X151892000Y-139620000D02*
X151892000Y-142500000D01*
X151892000Y-142500000D02*
X151892000Y-142541000D01*
X153162000Y-142160000D02*
X153162000Y-139620000D01*
X152908000Y-142541000D02*
X153162000Y-142160000D01*
X151892000Y-142541000D02*
X152908000Y-142541000D01*
X151892000Y-142541000D02*
X151892000Y-142541000D01*
X192786000Y-139620000D02*
X192786000Y-141714000D01*
X192750000Y-141750000D02*
X192786000Y-141714000D01*
X194056000Y-133270000D02*
X194250000Y-133076000D01*
X194250000Y-133076000D02*
X194250000Y-131000000D01*
X194250000Y-131000000D02*
X194250000Y-127750000D01*
X194000000Y-133076000D02*
X194056000Y-133270000D01*
X198000000Y-97000000D02*
X198000000Y-106250000D01*
X198000000Y-106250000D02*
X197625000Y-106625000D01*
X172680000Y-105290000D02*
X148550000Y-105290000D01*
X194750000Y-96500000D02*
X193500000Y-95200000D01*
X197500000Y-96500000D02*
X194750000Y-96500000D01*
X198000000Y-97000000D02*
X197500000Y-96500000D01*
X176967000Y-106680000D02*
X197625000Y-106625000D01*
X175570000Y-105283000D02*
X176967000Y-106680000D01*
X175554000Y-105283000D02*
X175570000Y-105283000D01*
X172750000Y-105250000D02*
X175554000Y-105283000D01*
X172680000Y-85290000D02*
X148550000Y-85290000D01*
X193500000Y-97740000D02*
X192250000Y-96500000D01*
X174554000Y-85344000D02*
X172734000Y-85344000D01*
X185249811Y-96500178D02*
X177475000Y-88265000D01*
X192250000Y-96500000D02*
X185249811Y-96500178D01*
X172734000Y-85344000D02*
X172680000Y-85290000D01*
X148550000Y-89290000D02*
X172680000Y-89290000D01*
X172680000Y-89290000D02*
X172689000Y-89281000D01*
X172689000Y-89281000D02*
X173792500Y-89292500D01*
X173792500Y-89292500D02*
X183571500Y-99071500D01*
X183571500Y-99071500D02*
X194750000Y-99000000D01*
X194750000Y-99000000D02*
X196040000Y-97740000D01*
X148550000Y-91290000D02*
X172680000Y-91290000D01*
X172680000Y-91290000D02*
X172703000Y-91313000D01*
X172703000Y-91313000D02*
X173808500Y-91308500D01*
X173808500Y-91308500D02*
X182825500Y-100325500D01*
X182825500Y-100325500D02*
X193500000Y-100280000D01*
X148550000Y-93290000D02*
X172680000Y-93290000D01*
X172680000Y-93290000D02*
X172735000Y-93345000D01*
X172735000Y-93345000D02*
X173824500Y-93324500D01*
X173824500Y-93324500D02*
X182079500Y-101579500D01*
X182079500Y-101579500D02*
X194750000Y-101500000D01*
X194750000Y-101500000D02*
X196040000Y-100280000D01*
X148550000Y-95290000D02*
X172680000Y-95290000D01*
X172680000Y-95290000D02*
X172720000Y-95250000D01*
X172720000Y-95250000D02*
X173777000Y-95277000D01*
X173777000Y-95277000D02*
X181397000Y-102897000D01*
X181397000Y-102897000D02*
X193500000Y-102820000D01*
X148550000Y-97290000D02*
X172680000Y-97290000D01*
X172680000Y-97290000D02*
X172688000Y-97282000D01*
X172688000Y-97282000D02*
X173793000Y-97293000D01*
X173793000Y-97293000D02*
X180651000Y-104151000D01*
X180651000Y-104151000D02*
X194634247Y-104125342D01*
X194634247Y-104125342D02*
X196040000Y-102820000D01*
X148550000Y-99290000D02*
X172680000Y-99290000D01*
X172680000Y-99290000D02*
X172704000Y-99314000D01*
X172704000Y-99314000D02*
X174559000Y-99309000D01*
X174559000Y-99309000D02*
X180655000Y-105405000D01*
X180655000Y-105405000D02*
X193500000Y-105360000D01*
X169926000Y-107315000D02*
X169951000Y-107290000D01*
X172680000Y-107290000D02*
X169951000Y-107290000D01*
X170000000Y-141750000D02*
X169926000Y-141750000D01*
X169926000Y-141750000D02*
X170000000Y-141750000D01*
X170000000Y-141750000D02*
X169926000Y-141750000D01*
X169926000Y-139620000D02*
X169926000Y-141750000D01*
X169926000Y-141750000D02*
X169926000Y-141906000D01*
X169926000Y-141906000D02*
X169926000Y-142668000D01*
X171196000Y-142287000D02*
X171196000Y-139620000D01*
X170815000Y-142668000D02*
X171196000Y-142287000D01*
X169926000Y-142668000D02*
X170815000Y-142668000D01*
X169926000Y-142668000D02*
X169926000Y-142668000D01*
X172680000Y-107290000D02*
X192750000Y-107250000D01*
X192750000Y-107250000D02*
X193500000Y-107900000D01*
X148550000Y-109290000D02*
X172680000Y-109290000D01*
X172680000Y-109290000D02*
X172750000Y-109220000D01*
X172750000Y-109220000D02*
X194750546Y-109119887D01*
X194750546Y-109119887D02*
X196040000Y-107900000D01*
X172680000Y-101290000D02*
X175387000Y-101290000D01*
X175387000Y-101290000D02*
X176078000Y-101981000D01*
X177546000Y-133270000D02*
X177546000Y-129704000D01*
X177546000Y-129704000D02*
X176000000Y-127750000D01*
X159512000Y-133270000D02*
X159512000Y-131512000D01*
X159512000Y-101346000D02*
X159456000Y-101290000D01*
X159456000Y-101290000D02*
X148550000Y-101290000D01*
X159512000Y-131512000D02*
X159500000Y-131500000D01*
X190250000Y-131000000D02*
X190250000Y-128500000D01*
X204470000Y-128530000D02*
X204470000Y-134298000D01*
X204500000Y-128500000D02*
X204470000Y-128530000D01*
X188976000Y-139620000D02*
X188976000Y-141726000D01*
X190246000Y-131004000D02*
X190246000Y-133270000D01*
X190250000Y-131000000D02*
X190246000Y-131004000D01*
X188976000Y-141726000D02*
X189000000Y-141750000D01*
X175006000Y-139620000D02*
X175006000Y-142287000D01*
X194056000Y-142287000D02*
X194056000Y-139620000D01*
X193675000Y-142668000D02*
X194056000Y-142287000D01*
X175387000Y-142668000D02*
X193675000Y-142668000D01*
X175006000Y-142287000D02*
X175387000Y-142668000D01*
X175641000Y-129460000D02*
X175641000Y-129359000D01*
X195326000Y-141906000D02*
X195326000Y-139620000D01*
X175641000Y-129359000D02*
X175750000Y-129250000D01*
X176276000Y-133270000D02*
X176276000Y-130095000D01*
X176276000Y-130095000D02*
X175641000Y-129460000D01*
X175006000Y-130095000D02*
X175006000Y-133270000D01*
X175641000Y-129460000D02*
X175006000Y-130095000D01*
X174000000Y-128750000D02*
X159714000Y-128750000D01*
X196596000Y-130346000D02*
X196500000Y-130250000D01*
X196596000Y-133270000D02*
X196596000Y-130346000D01*
X159714000Y-128750000D02*
X158242000Y-130222000D01*
X156972000Y-133270000D02*
X156972000Y-130603000D01*
X158242000Y-130222000D02*
X158242000Y-133270000D01*
X158242000Y-130222000D02*
X158242000Y-130222000D01*
X157353000Y-130222000D02*
X157607000Y-130222000D01*
X157607000Y-130222000D02*
X158242000Y-130222000D01*
X156972000Y-130603000D02*
X157353000Y-130222000D01*
X195326000Y-133270000D02*
X195326000Y-130984000D01*
X156972000Y-143557000D02*
X156972000Y-139620000D01*
X171196000Y-133270000D02*
X171196000Y-131554000D01*
X171196000Y-131554000D02*
X172500000Y-130250000D01*
X172500000Y-130250000D02*
X172466000Y-130284000D01*
X172466000Y-130284000D02*
X172466000Y-133270000D01*
X153162000Y-133270000D02*
X153162000Y-131338000D01*
X153162000Y-131338000D02*
X154250000Y-130250000D01*
X154432000Y-133270000D02*
X154432000Y-130432000D01*
X154432000Y-130432000D02*
X154250000Y-130250000D01*
X167250000Y-141750000D02*
X167250000Y-139750000D01*
X172500000Y-142750000D02*
X173500000Y-142750000D01*
X173736000Y-142514000D02*
X173736000Y-139620000D01*
X173500000Y-142750000D02*
X173736000Y-142514000D01*
X191516000Y-141734000D02*
X191500000Y-141750000D01*
X191516000Y-139620000D02*
X191516000Y-141734000D01*
X172466000Y-142716000D02*
X172466000Y-139620000D01*
X172500000Y-142750000D02*
X172466000Y-142716000D01*
X192786000Y-133270000D02*
X192786000Y-127286000D01*
X192786000Y-127286000D02*
X192250000Y-126750000D01*
X192250000Y-126750000D02*
X176500000Y-126750000D01*
X176500000Y-126750000D02*
X176000000Y-126750000D01*
X176000000Y-126750000D02*
X175750000Y-126750000D01*
X175750000Y-126750000D02*
X174750000Y-127750000D01*
X174750000Y-127750000D02*
X153250000Y-127750000D01*
X155448000Y-142541000D02*
X155702000Y-142287000D01*
X154686000Y-142541000D02*
X155448000Y-142541000D01*
X154432000Y-142287000D02*
X154686000Y-142541000D01*
X147250000Y-137250000D02*
X153250000Y-137250000D01*
X154432000Y-138432000D02*
X154432000Y-139620000D01*
X153250000Y-137250000D02*
X154432000Y-138432000D01*
X154432000Y-139620000D02*
X154432000Y-142287000D01*
X155702000Y-142287000D02*
X155702000Y-139620000D01*
M02*
