G04 #@! TF.FileFunction,Other,Fab,Top*
%FSLAX46Y46*%
G04 Gerber Fmt 4.6, Leading zero omitted, Abs format (unit mm)*
G04 Created by KiCad (PCBNEW 4.0.5+dfsg1-4~bpo8+1) date Thu Jun 29 19:36:04 2017*
%MOMM*%
%LPD*%
G01*
G04 APERTURE LIST*
%ADD10C,0.100000*%
%ADD11C,0.300000*%
%ADD12C,0.150000*%
G04 APERTURE END LIST*
D10*
D11*
X211921429Y-104839287D02*
X211921429Y-105839287D01*
X210421429Y-105196430D01*
X211278571Y-106625001D02*
X211350000Y-106482143D01*
X211421429Y-106410715D01*
X211564286Y-106339286D01*
X211635714Y-106339286D01*
X211778571Y-106410715D01*
X211850000Y-106482143D01*
X211921429Y-106625001D01*
X211921429Y-106910715D01*
X211850000Y-107053572D01*
X211778571Y-107125001D01*
X211635714Y-107196429D01*
X211564286Y-107196429D01*
X211421429Y-107125001D01*
X211350000Y-107053572D01*
X211278571Y-106910715D01*
X211278571Y-106625001D01*
X211207143Y-106482143D01*
X211135714Y-106410715D01*
X210992857Y-106339286D01*
X210707143Y-106339286D01*
X210564286Y-106410715D01*
X210492857Y-106482143D01*
X210421429Y-106625001D01*
X210421429Y-106910715D01*
X210492857Y-107053572D01*
X210564286Y-107125001D01*
X210707143Y-107196429D01*
X210992857Y-107196429D01*
X211135714Y-107125001D01*
X211207143Y-107053572D01*
X211278571Y-106910715D01*
X210564286Y-107839286D02*
X210492857Y-107910714D01*
X210421429Y-107839286D01*
X210492857Y-107767857D01*
X210564286Y-107839286D01*
X210421429Y-107839286D01*
X211778571Y-108482143D02*
X211850000Y-108553572D01*
X211921429Y-108696429D01*
X211921429Y-109053572D01*
X211850000Y-109196429D01*
X211778571Y-109267858D01*
X211635714Y-109339286D01*
X211492857Y-109339286D01*
X211278571Y-109267858D01*
X210421429Y-108410715D01*
X210421429Y-109339286D01*
X211921429Y-110696429D02*
X211921429Y-109982143D01*
X211207143Y-109910714D01*
X211278571Y-109982143D01*
X211350000Y-110125000D01*
X211350000Y-110482143D01*
X211278571Y-110625000D01*
X211207143Y-110696429D01*
X211064286Y-110767857D01*
X210707143Y-110767857D01*
X210564286Y-110696429D01*
X210492857Y-110625000D01*
X210421429Y-110482143D01*
X210421429Y-110125000D01*
X210492857Y-109982143D01*
X210564286Y-109910714D01*
X211921429Y-111696428D02*
X211921429Y-111839285D01*
X211850000Y-111982142D01*
X211778571Y-112053571D01*
X211635714Y-112125000D01*
X211350000Y-112196428D01*
X210992857Y-112196428D01*
X210707143Y-112125000D01*
X210564286Y-112053571D01*
X210492857Y-111982142D01*
X210421429Y-111839285D01*
X210421429Y-111696428D01*
X210492857Y-111553571D01*
X210564286Y-111482142D01*
X210707143Y-111410714D01*
X210992857Y-111339285D01*
X211350000Y-111339285D01*
X211635714Y-111410714D01*
X211778571Y-111482142D01*
X211850000Y-111553571D01*
X211921429Y-111696428D01*
X210421429Y-113982142D02*
X211421429Y-113982142D01*
X211278571Y-113982142D02*
X211350000Y-114053570D01*
X211421429Y-114196428D01*
X211421429Y-114410713D01*
X211350000Y-114553570D01*
X211207143Y-114624999D01*
X210421429Y-114624999D01*
X211207143Y-114624999D02*
X211350000Y-114696428D01*
X211421429Y-114839285D01*
X211421429Y-115053570D01*
X211350000Y-115196428D01*
X211207143Y-115267856D01*
X210421429Y-115267856D01*
X210421429Y-115982142D02*
X211421429Y-115982142D01*
X211278571Y-115982142D02*
X211350000Y-116053570D01*
X211421429Y-116196428D01*
X211421429Y-116410713D01*
X211350000Y-116553570D01*
X211207143Y-116624999D01*
X210421429Y-116624999D01*
X211207143Y-116624999D02*
X211350000Y-116696428D01*
X211421429Y-116839285D01*
X211421429Y-117053570D01*
X211350000Y-117196428D01*
X211207143Y-117267856D01*
X210421429Y-117267856D01*
X209750000Y-72000000D02*
X209750000Y-150250000D01*
X208250000Y-72000000D02*
X212450000Y-72000000D01*
X208250000Y-150250000D02*
X212450000Y-150250000D01*
X209750000Y-150250000D02*
X209163579Y-149123496D01*
X209750000Y-150250000D02*
X210336421Y-149123496D01*
X209750000Y-72000000D02*
X209163579Y-73126504D01*
X209750000Y-72000000D02*
X210336421Y-73126504D01*
X165089287Y-68578571D02*
X166089287Y-68578571D01*
X165446430Y-70078571D01*
X166517858Y-68578571D02*
X167446429Y-68578571D01*
X166946429Y-69150000D01*
X167160715Y-69150000D01*
X167303572Y-69221429D01*
X167375001Y-69292857D01*
X167446429Y-69435714D01*
X167446429Y-69792857D01*
X167375001Y-69935714D01*
X167303572Y-70007143D01*
X167160715Y-70078571D01*
X166732143Y-70078571D01*
X166589286Y-70007143D01*
X166517858Y-69935714D01*
X168089286Y-69935714D02*
X168160714Y-70007143D01*
X168089286Y-70078571D01*
X168017857Y-70007143D01*
X168089286Y-69935714D01*
X168089286Y-70078571D01*
X168660715Y-68578571D02*
X169660715Y-68578571D01*
X169017858Y-70078571D01*
X170946429Y-68578571D02*
X170232143Y-68578571D01*
X170160714Y-69292857D01*
X170232143Y-69221429D01*
X170375000Y-69150000D01*
X170732143Y-69150000D01*
X170875000Y-69221429D01*
X170946429Y-69292857D01*
X171017857Y-69435714D01*
X171017857Y-69792857D01*
X170946429Y-69935714D01*
X170875000Y-70007143D01*
X170732143Y-70078571D01*
X170375000Y-70078571D01*
X170232143Y-70007143D01*
X170160714Y-69935714D01*
X171946428Y-68578571D02*
X172089285Y-68578571D01*
X172232142Y-68650000D01*
X172303571Y-68721429D01*
X172375000Y-68864286D01*
X172446428Y-69150000D01*
X172446428Y-69507143D01*
X172375000Y-69792857D01*
X172303571Y-69935714D01*
X172232142Y-70007143D01*
X172089285Y-70078571D01*
X171946428Y-70078571D01*
X171803571Y-70007143D01*
X171732142Y-69935714D01*
X171660714Y-69792857D01*
X171589285Y-69507143D01*
X171589285Y-69150000D01*
X171660714Y-68864286D01*
X171732142Y-68721429D01*
X171803571Y-68650000D01*
X171946428Y-68578571D01*
X174232142Y-70078571D02*
X174232142Y-69078571D01*
X174232142Y-69221429D02*
X174303570Y-69150000D01*
X174446428Y-69078571D01*
X174660713Y-69078571D01*
X174803570Y-69150000D01*
X174874999Y-69292857D01*
X174874999Y-70078571D01*
X174874999Y-69292857D02*
X174946428Y-69150000D01*
X175089285Y-69078571D01*
X175303570Y-69078571D01*
X175446428Y-69150000D01*
X175517856Y-69292857D01*
X175517856Y-70078571D01*
X176232142Y-70078571D02*
X176232142Y-69078571D01*
X176232142Y-69221429D02*
X176303570Y-69150000D01*
X176446428Y-69078571D01*
X176660713Y-69078571D01*
X176803570Y-69150000D01*
X176874999Y-69292857D01*
X176874999Y-70078571D01*
X176874999Y-69292857D02*
X176946428Y-69150000D01*
X177089285Y-69078571D01*
X177303570Y-69078571D01*
X177446428Y-69150000D01*
X177517856Y-69292857D01*
X177517856Y-70078571D01*
X134500000Y-70750000D02*
X208250000Y-70750000D01*
X134500000Y-72000000D02*
X134500000Y-68050000D01*
X208250000Y-72000000D02*
X208250000Y-68050000D01*
X208250000Y-70750000D02*
X207123496Y-71336421D01*
X208250000Y-70750000D02*
X207123496Y-70163579D01*
X134500000Y-70750000D02*
X135626504Y-71336421D01*
X134500000Y-70750000D02*
X135626504Y-70163579D01*
D12*
X134500000Y-72000000D02*
X134500000Y-150250000D01*
X208250000Y-72000000D02*
X134500000Y-72000000D01*
X208250000Y-150250000D02*
X208250000Y-72000000D01*
X134500000Y-150250000D02*
X208250000Y-150250000D01*
D10*
X164319000Y-135772000D02*
X165119000Y-135772000D01*
X164319000Y-137372000D02*
X164319000Y-135772000D01*
X165119000Y-137372000D02*
X164319000Y-137372000D01*
X165119000Y-135772000D02*
X165119000Y-137372000D01*
X204870000Y-135848000D02*
X204070000Y-135848000D01*
X204870000Y-134248000D02*
X204870000Y-135848000D01*
X204070000Y-134248000D02*
X204870000Y-134248000D01*
X204070000Y-135848000D02*
X204070000Y-134248000D01*
X182099000Y-135772000D02*
X182899000Y-135772000D01*
X182099000Y-137372000D02*
X182099000Y-135772000D01*
X182899000Y-137372000D02*
X182099000Y-137372000D01*
X182899000Y-135772000D02*
X182899000Y-137372000D01*
X200387000Y-135772000D02*
X201187000Y-135772000D01*
X200387000Y-137372000D02*
X200387000Y-135772000D01*
X201187000Y-137372000D02*
X200387000Y-137372000D01*
X201187000Y-135772000D02*
X201187000Y-137372000D01*
X170950000Y-130650000D02*
X170950000Y-129850000D01*
X172550000Y-130650000D02*
X170950000Y-130650000D01*
X172550000Y-129850000D02*
X172550000Y-130650000D01*
X170950000Y-129850000D02*
X172550000Y-129850000D01*
X152700000Y-130650000D02*
X152700000Y-129850000D01*
X154300000Y-130650000D02*
X152700000Y-130650000D01*
X154300000Y-129850000D02*
X154300000Y-130650000D01*
X152700000Y-129850000D02*
X154300000Y-129850000D01*
X165700000Y-140150000D02*
X165700000Y-139350000D01*
X167300000Y-140150000D02*
X165700000Y-140150000D01*
X167300000Y-139350000D02*
X167300000Y-140150000D01*
X165700000Y-139350000D02*
X167300000Y-139350000D01*
X146850000Y-135700000D02*
X147650000Y-135700000D01*
X146850000Y-137300000D02*
X146850000Y-135700000D01*
X147650000Y-137300000D02*
X146850000Y-137300000D01*
X147650000Y-135700000D02*
X147650000Y-137300000D01*
D12*
X195600000Y-126150000D02*
X199900000Y-126150000D01*
X199900000Y-126150000D02*
X199900000Y-118850000D01*
X199900000Y-118850000D02*
X195600000Y-118850000D01*
X195600000Y-118850000D02*
X195600000Y-126150000D01*
X195600000Y-125420000D02*
X199900000Y-125420000D01*
X195600000Y-125055000D02*
X199900000Y-125055000D01*
X168100000Y-126150000D02*
X172400000Y-126150000D01*
X172400000Y-126150000D02*
X172400000Y-118850000D01*
X172400000Y-118850000D02*
X168100000Y-118850000D01*
X168100000Y-118850000D02*
X168100000Y-126150000D01*
X168100000Y-125420000D02*
X172400000Y-125420000D01*
X168100000Y-125055000D02*
X172400000Y-125055000D01*
X142850000Y-125900000D02*
X147150000Y-125900000D01*
X147150000Y-125900000D02*
X147150000Y-118600000D01*
X147150000Y-118600000D02*
X142850000Y-118600000D01*
X142850000Y-118600000D02*
X142850000Y-125900000D01*
X142850000Y-125170000D02*
X147150000Y-125170000D01*
X142850000Y-124805000D02*
X147150000Y-124805000D01*
X163271381Y-138119619D02*
X163271381Y-138691048D01*
X163271381Y-138405334D02*
X162271381Y-138405334D01*
X162414238Y-138500572D01*
X162509476Y-138595810D01*
X162557095Y-138691048D01*
X162271381Y-137500572D02*
X162271381Y-137405333D01*
X162319000Y-137310095D01*
X162366619Y-137262476D01*
X162461857Y-137214857D01*
X162652333Y-137167238D01*
X162890429Y-137167238D01*
X163080905Y-137214857D01*
X163176143Y-137262476D01*
X163223762Y-137310095D01*
X163271381Y-137405333D01*
X163271381Y-137500572D01*
X163223762Y-137595810D01*
X163176143Y-137643429D01*
X163080905Y-137691048D01*
X162890429Y-137738667D01*
X162652333Y-137738667D01*
X162461857Y-137691048D01*
X162366619Y-137643429D01*
X162319000Y-137595810D01*
X162271381Y-137500572D01*
X162271381Y-136548191D02*
X162271381Y-136452952D01*
X162319000Y-136357714D01*
X162366619Y-136310095D01*
X162461857Y-136262476D01*
X162652333Y-136214857D01*
X162890429Y-136214857D01*
X163080905Y-136262476D01*
X163176143Y-136310095D01*
X163223762Y-136357714D01*
X163271381Y-136452952D01*
X163271381Y-136548191D01*
X163223762Y-136643429D01*
X163176143Y-136691048D01*
X163080905Y-136738667D01*
X162890429Y-136786286D01*
X162652333Y-136786286D01*
X162461857Y-136738667D01*
X162366619Y-136691048D01*
X162319000Y-136643429D01*
X162271381Y-136548191D01*
X162604714Y-135786286D02*
X163271381Y-135786286D01*
X162699952Y-135786286D02*
X162652333Y-135738667D01*
X162604714Y-135643429D01*
X162604714Y-135500571D01*
X162652333Y-135405333D01*
X162747571Y-135357714D01*
X163271381Y-135357714D01*
X162747571Y-134548190D02*
X162747571Y-134881524D01*
X163271381Y-134881524D02*
X162271381Y-134881524D01*
X162271381Y-134405333D01*
X185976189Y-79566667D02*
X186452380Y-79566667D01*
X185880951Y-79852381D02*
X186214284Y-78852381D01*
X186547618Y-79852381D01*
X186880951Y-79852381D02*
X186880951Y-79185714D01*
X186880951Y-79280952D02*
X186928570Y-79233333D01*
X187023808Y-79185714D01*
X187166666Y-79185714D01*
X187261904Y-79233333D01*
X187309523Y-79328571D01*
X187309523Y-79852381D01*
X187309523Y-79328571D02*
X187357142Y-79233333D01*
X187452380Y-79185714D01*
X187595237Y-79185714D01*
X187690475Y-79233333D01*
X187738094Y-79328571D01*
X187738094Y-79852381D01*
X188214284Y-79852381D02*
X188214284Y-79185714D01*
X188214284Y-78852381D02*
X188166665Y-78900000D01*
X188214284Y-78947619D01*
X188261903Y-78900000D01*
X188214284Y-78852381D01*
X188214284Y-78947619D01*
X189119046Y-79185714D02*
X189119046Y-79995238D01*
X189071427Y-80090476D01*
X189023808Y-80138095D01*
X188928569Y-80185714D01*
X188785712Y-80185714D01*
X188690474Y-80138095D01*
X189119046Y-79804762D02*
X189023808Y-79852381D01*
X188833331Y-79852381D01*
X188738093Y-79804762D01*
X188690474Y-79757143D01*
X188642855Y-79661905D01*
X188642855Y-79376190D01*
X188690474Y-79280952D01*
X188738093Y-79233333D01*
X188833331Y-79185714D01*
X189023808Y-79185714D01*
X189119046Y-79233333D01*
X190023808Y-79852381D02*
X190023808Y-79328571D01*
X189976189Y-79233333D01*
X189880951Y-79185714D01*
X189690474Y-79185714D01*
X189595236Y-79233333D01*
X190023808Y-79804762D02*
X189928570Y-79852381D01*
X189690474Y-79852381D01*
X189595236Y-79804762D01*
X189547617Y-79709524D01*
X189547617Y-79614286D01*
X189595236Y-79519048D01*
X189690474Y-79471429D01*
X189928570Y-79471429D01*
X190023808Y-79423810D01*
X190833332Y-79328571D02*
X190499998Y-79328571D01*
X190499998Y-79852381D02*
X190499998Y-78852381D01*
X190976189Y-78852381D01*
X191499998Y-79852381D02*
X191404760Y-79804762D01*
X191357141Y-79709524D01*
X191357141Y-78852381D01*
X192023808Y-79852381D02*
X191928570Y-79804762D01*
X191880951Y-79757143D01*
X191833332Y-79661905D01*
X191833332Y-79376190D01*
X191880951Y-79280952D01*
X191928570Y-79233333D01*
X192023808Y-79185714D01*
X192166666Y-79185714D01*
X192261904Y-79233333D01*
X192309523Y-79280952D01*
X192357142Y-79376190D01*
X192357142Y-79661905D01*
X192309523Y-79757143D01*
X192261904Y-79804762D01*
X192166666Y-79852381D01*
X192023808Y-79852381D01*
X192785713Y-79185714D02*
X192785713Y-80185714D01*
X192785713Y-79233333D02*
X192880951Y-79185714D01*
X193071428Y-79185714D01*
X193166666Y-79233333D01*
X193214285Y-79280952D01*
X193261904Y-79376190D01*
X193261904Y-79661905D01*
X193214285Y-79757143D01*
X193166666Y-79804762D01*
X193071428Y-79852381D01*
X192880951Y-79852381D01*
X192785713Y-79804762D01*
X193690475Y-79185714D02*
X193690475Y-80185714D01*
X193690475Y-79233333D02*
X193785713Y-79185714D01*
X193976190Y-79185714D01*
X194071428Y-79233333D01*
X194119047Y-79280952D01*
X194166666Y-79376190D01*
X194166666Y-79661905D01*
X194119047Y-79757143D01*
X194071428Y-79804762D01*
X193976190Y-79852381D01*
X193785713Y-79852381D01*
X193690475Y-79804762D01*
X194499999Y-79185714D02*
X194738094Y-79852381D01*
X194976190Y-79185714D02*
X194738094Y-79852381D01*
X194642856Y-80090476D01*
X194595237Y-80138095D01*
X194499999Y-80185714D01*
X195357142Y-79328571D02*
X195690476Y-79328571D01*
X195833333Y-79852381D02*
X195357142Y-79852381D01*
X195357142Y-78852381D01*
X195833333Y-78852381D01*
X196166666Y-79852381D02*
X196690476Y-79185714D01*
X196166666Y-79185714D02*
X196690476Y-79852381D01*
X196928571Y-79185714D02*
X197309523Y-79185714D01*
X197071428Y-78852381D02*
X197071428Y-79709524D01*
X197119047Y-79804762D01*
X197214285Y-79852381D01*
X197309523Y-79852381D01*
X198023810Y-79804762D02*
X197928572Y-79852381D01*
X197738095Y-79852381D01*
X197642857Y-79804762D01*
X197595238Y-79709524D01*
X197595238Y-79328571D01*
X197642857Y-79233333D01*
X197738095Y-79185714D01*
X197928572Y-79185714D01*
X198023810Y-79233333D01*
X198071429Y-79328571D01*
X198071429Y-79423810D01*
X197595238Y-79519048D01*
X198500000Y-79852381D02*
X198500000Y-79185714D01*
X198500000Y-79376190D02*
X198547619Y-79280952D01*
X198595238Y-79233333D01*
X198690476Y-79185714D01*
X198785715Y-79185714D01*
X199119048Y-79185714D02*
X199119048Y-79852381D01*
X199119048Y-79280952D02*
X199166667Y-79233333D01*
X199261905Y-79185714D01*
X199404763Y-79185714D01*
X199500001Y-79233333D01*
X199547620Y-79328571D01*
X199547620Y-79852381D01*
X200452382Y-79852381D02*
X200452382Y-79328571D01*
X200404763Y-79233333D01*
X200309525Y-79185714D01*
X200119048Y-79185714D01*
X200023810Y-79233333D01*
X200452382Y-79804762D02*
X200357144Y-79852381D01*
X200119048Y-79852381D01*
X200023810Y-79804762D01*
X199976191Y-79709524D01*
X199976191Y-79614286D01*
X200023810Y-79519048D01*
X200119048Y-79471429D01*
X200357144Y-79471429D01*
X200452382Y-79423810D01*
X201071429Y-79852381D02*
X200976191Y-79804762D01*
X200928572Y-79709524D01*
X200928572Y-78852381D01*
X175108571Y-92956666D02*
X175108571Y-93290000D01*
X175632381Y-93290000D02*
X174632381Y-93290000D01*
X174632381Y-92813809D01*
X175632381Y-91956666D02*
X175632381Y-92432857D01*
X174632381Y-92432857D01*
X174632381Y-91432857D02*
X174632381Y-91242380D01*
X174680000Y-91147142D01*
X174775238Y-91051904D01*
X174965714Y-91004285D01*
X175299048Y-91004285D01*
X175489524Y-91051904D01*
X175584762Y-91147142D01*
X175632381Y-91242380D01*
X175632381Y-91432857D01*
X175584762Y-91528095D01*
X175489524Y-91623333D01*
X175299048Y-91670952D01*
X174965714Y-91670952D01*
X174775238Y-91623333D01*
X174680000Y-91528095D01*
X174632381Y-91432857D01*
X175632381Y-90575714D02*
X174632381Y-90575714D01*
X174632381Y-90194761D01*
X174680000Y-90099523D01*
X174727619Y-90051904D01*
X174822857Y-90004285D01*
X174965714Y-90004285D01*
X175060952Y-90051904D01*
X175108571Y-90099523D01*
X175156190Y-90194761D01*
X175156190Y-90575714D01*
X175632381Y-89575714D02*
X174632381Y-89575714D01*
X174632381Y-89194761D01*
X174680000Y-89099523D01*
X174727619Y-89051904D01*
X174822857Y-89004285D01*
X174965714Y-89004285D01*
X175060952Y-89051904D01*
X175108571Y-89099523D01*
X175156190Y-89194761D01*
X175156190Y-89575714D01*
X175156190Y-88385238D02*
X175632381Y-88385238D01*
X174632381Y-88718571D02*
X175156190Y-88385238D01*
X174632381Y-88051904D01*
X174727619Y-87766190D02*
X174680000Y-87718571D01*
X174632381Y-87623333D01*
X174632381Y-87385237D01*
X174680000Y-87289999D01*
X174727619Y-87242380D01*
X174822857Y-87194761D01*
X174918095Y-87194761D01*
X175060952Y-87242380D01*
X175632381Y-87813809D01*
X175632381Y-87194761D01*
X174632381Y-86337618D02*
X174632381Y-86528095D01*
X174680000Y-86623333D01*
X174727619Y-86670952D01*
X174870476Y-86766190D01*
X175060952Y-86813809D01*
X175441905Y-86813809D01*
X175537143Y-86766190D01*
X175584762Y-86718571D01*
X175632381Y-86623333D01*
X175632381Y-86432856D01*
X175584762Y-86337618D01*
X175537143Y-86289999D01*
X175441905Y-86242380D01*
X175203810Y-86242380D01*
X175108571Y-86289999D01*
X175060952Y-86337618D01*
X175013333Y-86432856D01*
X175013333Y-86623333D01*
X175060952Y-86718571D01*
X175108571Y-86766190D01*
X175203810Y-86813809D01*
X150978571Y-92956666D02*
X150978571Y-93290000D01*
X151502381Y-93290000D02*
X150502381Y-93290000D01*
X150502381Y-92813809D01*
X151502381Y-91956666D02*
X151502381Y-92432857D01*
X150502381Y-92432857D01*
X150502381Y-91432857D02*
X150502381Y-91242380D01*
X150550000Y-91147142D01*
X150645238Y-91051904D01*
X150835714Y-91004285D01*
X151169048Y-91004285D01*
X151359524Y-91051904D01*
X151454762Y-91147142D01*
X151502381Y-91242380D01*
X151502381Y-91432857D01*
X151454762Y-91528095D01*
X151359524Y-91623333D01*
X151169048Y-91670952D01*
X150835714Y-91670952D01*
X150645238Y-91623333D01*
X150550000Y-91528095D01*
X150502381Y-91432857D01*
X151502381Y-90575714D02*
X150502381Y-90575714D01*
X150502381Y-90194761D01*
X150550000Y-90099523D01*
X150597619Y-90051904D01*
X150692857Y-90004285D01*
X150835714Y-90004285D01*
X150930952Y-90051904D01*
X150978571Y-90099523D01*
X151026190Y-90194761D01*
X151026190Y-90575714D01*
X151502381Y-89575714D02*
X150502381Y-89575714D01*
X150502381Y-89194761D01*
X150550000Y-89099523D01*
X150597619Y-89051904D01*
X150692857Y-89004285D01*
X150835714Y-89004285D01*
X150930952Y-89051904D01*
X150978571Y-89099523D01*
X151026190Y-89194761D01*
X151026190Y-89575714D01*
X151026190Y-88385238D02*
X151502381Y-88385238D01*
X150502381Y-88718571D02*
X151026190Y-88385238D01*
X150502381Y-88051904D01*
X150597619Y-87766190D02*
X150550000Y-87718571D01*
X150502381Y-87623333D01*
X150502381Y-87385237D01*
X150550000Y-87289999D01*
X150597619Y-87242380D01*
X150692857Y-87194761D01*
X150788095Y-87194761D01*
X150930952Y-87242380D01*
X151502381Y-87813809D01*
X151502381Y-87194761D01*
X150502381Y-86337618D02*
X150502381Y-86528095D01*
X150550000Y-86623333D01*
X150597619Y-86670952D01*
X150740476Y-86766190D01*
X150930952Y-86813809D01*
X151311905Y-86813809D01*
X151407143Y-86766190D01*
X151454762Y-86718571D01*
X151502381Y-86623333D01*
X151502381Y-86432856D01*
X151454762Y-86337618D01*
X151407143Y-86289999D01*
X151311905Y-86242380D01*
X151073810Y-86242380D01*
X150978571Y-86289999D01*
X150930952Y-86337618D01*
X150883333Y-86432856D01*
X150883333Y-86623333D01*
X150930952Y-86718571D01*
X150978571Y-86766190D01*
X151073810Y-86813809D01*
X206822381Y-135262285D02*
X206822381Y-135833714D01*
X206822381Y-135548000D02*
X205822381Y-135548000D01*
X205965238Y-135643238D01*
X206060476Y-135738476D01*
X206108095Y-135833714D01*
X206822381Y-134833714D02*
X205822381Y-134833714D01*
X206822381Y-134262285D02*
X206250952Y-134690857D01*
X205822381Y-134262285D02*
X206393810Y-134833714D01*
X171093143Y-137040381D02*
X171759810Y-137040381D01*
X171331238Y-138040381D01*
X172569334Y-137373714D02*
X172569334Y-138040381D01*
X172331238Y-136992762D02*
X172093143Y-137707048D01*
X172712191Y-137707048D01*
X173569334Y-138040381D02*
X173093143Y-138040381D01*
X173093143Y-137040381D01*
X173855048Y-137992762D02*
X173997905Y-138040381D01*
X174236001Y-138040381D01*
X174331239Y-137992762D01*
X174378858Y-137945143D01*
X174426477Y-137849905D01*
X174426477Y-137754667D01*
X174378858Y-137659429D01*
X174331239Y-137611810D01*
X174236001Y-137564190D01*
X174045524Y-137516571D01*
X173950286Y-137468952D01*
X173902667Y-137421333D01*
X173855048Y-137326095D01*
X173855048Y-137230857D01*
X173902667Y-137135619D01*
X173950286Y-137088000D01*
X174045524Y-137040381D01*
X174283620Y-137040381D01*
X174426477Y-137088000D01*
X174759810Y-137040381D02*
X175378858Y-137040381D01*
X175045524Y-137421333D01*
X175188382Y-137421333D01*
X175283620Y-137468952D01*
X175331239Y-137516571D01*
X175378858Y-137611810D01*
X175378858Y-137849905D01*
X175331239Y-137945143D01*
X175283620Y-137992762D01*
X175188382Y-138040381D01*
X174902667Y-138040381D01*
X174807429Y-137992762D01*
X174759810Y-137945143D01*
X175950286Y-137468952D02*
X175855048Y-137421333D01*
X175807429Y-137373714D01*
X175759810Y-137278476D01*
X175759810Y-137230857D01*
X175807429Y-137135619D01*
X175855048Y-137088000D01*
X175950286Y-137040381D01*
X176140763Y-137040381D01*
X176236001Y-137088000D01*
X176283620Y-137135619D01*
X176331239Y-137230857D01*
X176331239Y-137278476D01*
X176283620Y-137373714D01*
X176236001Y-137421333D01*
X176140763Y-137468952D01*
X175950286Y-137468952D01*
X175855048Y-137516571D01*
X175807429Y-137564190D01*
X175759810Y-137659429D01*
X175759810Y-137849905D01*
X175807429Y-137945143D01*
X175855048Y-137992762D01*
X175950286Y-138040381D01*
X176140763Y-138040381D01*
X176236001Y-137992762D01*
X176283620Y-137945143D01*
X176331239Y-137849905D01*
X176331239Y-137659429D01*
X176283620Y-137564190D01*
X176236001Y-137516571D01*
X176140763Y-137468952D01*
X190143143Y-137040381D02*
X190809810Y-137040381D01*
X190381238Y-138040381D01*
X191619334Y-137373714D02*
X191619334Y-138040381D01*
X191381238Y-136992762D02*
X191143143Y-137707048D01*
X191762191Y-137707048D01*
X192619334Y-138040381D02*
X192143143Y-138040381D01*
X192143143Y-137040381D01*
X192905048Y-137992762D02*
X193047905Y-138040381D01*
X193286001Y-138040381D01*
X193381239Y-137992762D01*
X193428858Y-137945143D01*
X193476477Y-137849905D01*
X193476477Y-137754667D01*
X193428858Y-137659429D01*
X193381239Y-137611810D01*
X193286001Y-137564190D01*
X193095524Y-137516571D01*
X193000286Y-137468952D01*
X192952667Y-137421333D01*
X192905048Y-137326095D01*
X192905048Y-137230857D01*
X192952667Y-137135619D01*
X193000286Y-137088000D01*
X193095524Y-137040381D01*
X193333620Y-137040381D01*
X193476477Y-137088000D01*
X193809810Y-137040381D02*
X194476477Y-137040381D01*
X194047905Y-138040381D01*
X195286001Y-137373714D02*
X195286001Y-138040381D01*
X195047905Y-136992762D02*
X194809810Y-137707048D01*
X195428858Y-137707048D01*
X153059143Y-137040381D02*
X153725810Y-137040381D01*
X153297238Y-138040381D01*
X154535334Y-137373714D02*
X154535334Y-138040381D01*
X154297238Y-136992762D02*
X154059143Y-137707048D01*
X154678191Y-137707048D01*
X155535334Y-138040381D02*
X155059143Y-138040381D01*
X155059143Y-137040381D01*
X155821048Y-137992762D02*
X155963905Y-138040381D01*
X156202001Y-138040381D01*
X156297239Y-137992762D01*
X156344858Y-137945143D01*
X156392477Y-137849905D01*
X156392477Y-137754667D01*
X156344858Y-137659429D01*
X156297239Y-137611810D01*
X156202001Y-137564190D01*
X156011524Y-137516571D01*
X155916286Y-137468952D01*
X155868667Y-137421333D01*
X155821048Y-137326095D01*
X155821048Y-137230857D01*
X155868667Y-137135619D01*
X155916286Y-137088000D01*
X156011524Y-137040381D01*
X156249620Y-137040381D01*
X156392477Y-137088000D01*
X156725810Y-137040381D02*
X157344858Y-137040381D01*
X157011524Y-137421333D01*
X157154382Y-137421333D01*
X157249620Y-137468952D01*
X157297239Y-137516571D01*
X157344858Y-137611810D01*
X157344858Y-137849905D01*
X157297239Y-137945143D01*
X157249620Y-137992762D01*
X157154382Y-138040381D01*
X156868667Y-138040381D01*
X156773429Y-137992762D01*
X156725810Y-137945143D01*
X157916286Y-137468952D02*
X157821048Y-137421333D01*
X157773429Y-137373714D01*
X157725810Y-137278476D01*
X157725810Y-137230857D01*
X157773429Y-137135619D01*
X157821048Y-137088000D01*
X157916286Y-137040381D01*
X158106763Y-137040381D01*
X158202001Y-137088000D01*
X158249620Y-137135619D01*
X158297239Y-137230857D01*
X158297239Y-137278476D01*
X158249620Y-137373714D01*
X158202001Y-137421333D01*
X158106763Y-137468952D01*
X157916286Y-137468952D01*
X157821048Y-137516571D01*
X157773429Y-137564190D01*
X157725810Y-137659429D01*
X157725810Y-137849905D01*
X157773429Y-137945143D01*
X157821048Y-137992762D01*
X157916286Y-138040381D01*
X158106763Y-138040381D01*
X158202001Y-137992762D01*
X158249620Y-137945143D01*
X158297239Y-137849905D01*
X158297239Y-137659429D01*
X158249620Y-137564190D01*
X158202001Y-137516571D01*
X158106763Y-137468952D01*
X181051381Y-138119619D02*
X181051381Y-138691048D01*
X181051381Y-138405334D02*
X180051381Y-138405334D01*
X180194238Y-138500572D01*
X180289476Y-138595810D01*
X180337095Y-138691048D01*
X180051381Y-137500572D02*
X180051381Y-137405333D01*
X180099000Y-137310095D01*
X180146619Y-137262476D01*
X180241857Y-137214857D01*
X180432333Y-137167238D01*
X180670429Y-137167238D01*
X180860905Y-137214857D01*
X180956143Y-137262476D01*
X181003762Y-137310095D01*
X181051381Y-137405333D01*
X181051381Y-137500572D01*
X181003762Y-137595810D01*
X180956143Y-137643429D01*
X180860905Y-137691048D01*
X180670429Y-137738667D01*
X180432333Y-137738667D01*
X180241857Y-137691048D01*
X180146619Y-137643429D01*
X180099000Y-137595810D01*
X180051381Y-137500572D01*
X180051381Y-136548191D02*
X180051381Y-136452952D01*
X180099000Y-136357714D01*
X180146619Y-136310095D01*
X180241857Y-136262476D01*
X180432333Y-136214857D01*
X180670429Y-136214857D01*
X180860905Y-136262476D01*
X180956143Y-136310095D01*
X181003762Y-136357714D01*
X181051381Y-136452952D01*
X181051381Y-136548191D01*
X181003762Y-136643429D01*
X180956143Y-136691048D01*
X180860905Y-136738667D01*
X180670429Y-136786286D01*
X180432333Y-136786286D01*
X180241857Y-136738667D01*
X180146619Y-136691048D01*
X180099000Y-136643429D01*
X180051381Y-136548191D01*
X180384714Y-135786286D02*
X181051381Y-135786286D01*
X180479952Y-135786286D02*
X180432333Y-135738667D01*
X180384714Y-135643429D01*
X180384714Y-135500571D01*
X180432333Y-135405333D01*
X180527571Y-135357714D01*
X181051381Y-135357714D01*
X180527571Y-134548190D02*
X180527571Y-134881524D01*
X181051381Y-134881524D02*
X180051381Y-134881524D01*
X180051381Y-134405333D01*
X199339381Y-138119619D02*
X199339381Y-138691048D01*
X199339381Y-138405334D02*
X198339381Y-138405334D01*
X198482238Y-138500572D01*
X198577476Y-138595810D01*
X198625095Y-138691048D01*
X198339381Y-137500572D02*
X198339381Y-137405333D01*
X198387000Y-137310095D01*
X198434619Y-137262476D01*
X198529857Y-137214857D01*
X198720333Y-137167238D01*
X198958429Y-137167238D01*
X199148905Y-137214857D01*
X199244143Y-137262476D01*
X199291762Y-137310095D01*
X199339381Y-137405333D01*
X199339381Y-137500572D01*
X199291762Y-137595810D01*
X199244143Y-137643429D01*
X199148905Y-137691048D01*
X198958429Y-137738667D01*
X198720333Y-137738667D01*
X198529857Y-137691048D01*
X198434619Y-137643429D01*
X198387000Y-137595810D01*
X198339381Y-137500572D01*
X198339381Y-136548191D02*
X198339381Y-136452952D01*
X198387000Y-136357714D01*
X198434619Y-136310095D01*
X198529857Y-136262476D01*
X198720333Y-136214857D01*
X198958429Y-136214857D01*
X199148905Y-136262476D01*
X199244143Y-136310095D01*
X199291762Y-136357714D01*
X199339381Y-136452952D01*
X199339381Y-136548191D01*
X199291762Y-136643429D01*
X199244143Y-136691048D01*
X199148905Y-136738667D01*
X198958429Y-136786286D01*
X198720333Y-136786286D01*
X198529857Y-136738667D01*
X198434619Y-136691048D01*
X198387000Y-136643429D01*
X198339381Y-136548191D01*
X198672714Y-135786286D02*
X199339381Y-135786286D01*
X198767952Y-135786286D02*
X198720333Y-135738667D01*
X198672714Y-135643429D01*
X198672714Y-135500571D01*
X198720333Y-135405333D01*
X198815571Y-135357714D01*
X199339381Y-135357714D01*
X198815571Y-134548190D02*
X198815571Y-134881524D01*
X199339381Y-134881524D02*
X198339381Y-134881524D01*
X198339381Y-134405333D01*
X171535715Y-132602381D02*
X170964286Y-132602381D01*
X171250000Y-132602381D02*
X171250000Y-131602381D01*
X171154762Y-131745238D01*
X171059524Y-131840476D01*
X170964286Y-131888095D01*
X171964286Y-132602381D02*
X171964286Y-131602381D01*
X172535715Y-132602381D02*
X172107143Y-132030952D01*
X172535715Y-131602381D02*
X171964286Y-132173810D01*
X153285715Y-132602381D02*
X152714286Y-132602381D01*
X153000000Y-132602381D02*
X153000000Y-131602381D01*
X152904762Y-131745238D01*
X152809524Y-131840476D01*
X152714286Y-131888095D01*
X153714286Y-132602381D02*
X153714286Y-131602381D01*
X154285715Y-132602381D02*
X153857143Y-132030952D01*
X154285715Y-131602381D02*
X153714286Y-132173810D01*
X166285715Y-142102381D02*
X165714286Y-142102381D01*
X166000000Y-142102381D02*
X166000000Y-141102381D01*
X165904762Y-141245238D01*
X165809524Y-141340476D01*
X165714286Y-141388095D01*
X166714286Y-142102381D02*
X166714286Y-141102381D01*
X167285715Y-142102381D02*
X166857143Y-141530952D01*
X167285715Y-141102381D02*
X166714286Y-141673810D01*
X145802381Y-136714285D02*
X145802381Y-137285714D01*
X145802381Y-137000000D02*
X144802381Y-137000000D01*
X144945238Y-137095238D01*
X145040476Y-137190476D01*
X145088095Y-137285714D01*
X145802381Y-136285714D02*
X144802381Y-136285714D01*
X145802381Y-135714285D02*
X145230952Y-136142857D01*
X144802381Y-135714285D02*
X145373810Y-136285714D01*
X201435714Y-126119047D02*
X202102381Y-126119047D01*
X201054762Y-126357143D02*
X201769048Y-126595238D01*
X201769048Y-125976190D01*
X201102381Y-125690476D02*
X201102381Y-125023809D01*
X202102381Y-125452381D01*
X201102381Y-124452381D02*
X201102381Y-124357142D01*
X201150000Y-124261904D01*
X201197619Y-124214285D01*
X201292857Y-124166666D01*
X201483333Y-124119047D01*
X201721429Y-124119047D01*
X201911905Y-124166666D01*
X202007143Y-124214285D01*
X202054762Y-124261904D01*
X202102381Y-124357142D01*
X202102381Y-124452381D01*
X202054762Y-124547619D01*
X202007143Y-124595238D01*
X201911905Y-124642857D01*
X201721429Y-124690476D01*
X201483333Y-124690476D01*
X201292857Y-124642857D01*
X201197619Y-124595238D01*
X201150000Y-124547619D01*
X201102381Y-124452381D01*
X201435714Y-123690476D02*
X202435714Y-123690476D01*
X201959524Y-123214285D02*
X202054762Y-123166666D01*
X202102381Y-123071428D01*
X201959524Y-123690476D02*
X202054762Y-123642857D01*
X202102381Y-123547619D01*
X202102381Y-123357142D01*
X202054762Y-123261904D01*
X201959524Y-123214285D01*
X201435714Y-123214285D01*
X201578571Y-122309523D02*
X201578571Y-122642857D01*
X202102381Y-122642857D02*
X201102381Y-122642857D01*
X201102381Y-122166666D01*
X201054762Y-121071428D02*
X202340476Y-121928571D01*
X202102381Y-120214285D02*
X202102381Y-120785714D01*
X202102381Y-120500000D02*
X201102381Y-120500000D01*
X201245238Y-120595238D01*
X201340476Y-120690476D01*
X201388095Y-120785714D01*
X201102381Y-119595238D02*
X201102381Y-119499999D01*
X201150000Y-119404761D01*
X201197619Y-119357142D01*
X201292857Y-119309523D01*
X201483333Y-119261904D01*
X201721429Y-119261904D01*
X201911905Y-119309523D01*
X202007143Y-119357142D01*
X202054762Y-119404761D01*
X202102381Y-119499999D01*
X202102381Y-119595238D01*
X202054762Y-119690476D01*
X202007143Y-119738095D01*
X201911905Y-119785714D01*
X201721429Y-119833333D01*
X201483333Y-119833333D01*
X201292857Y-119785714D01*
X201197619Y-119738095D01*
X201150000Y-119690476D01*
X201102381Y-119595238D01*
X201102381Y-118976190D02*
X202102381Y-118642857D01*
X201102381Y-118309523D01*
X173935714Y-126119047D02*
X174602381Y-126119047D01*
X173554762Y-126357143D02*
X174269048Y-126595238D01*
X174269048Y-125976190D01*
X173602381Y-125690476D02*
X173602381Y-125023809D01*
X174602381Y-125452381D01*
X173602381Y-124452381D02*
X173602381Y-124357142D01*
X173650000Y-124261904D01*
X173697619Y-124214285D01*
X173792857Y-124166666D01*
X173983333Y-124119047D01*
X174221429Y-124119047D01*
X174411905Y-124166666D01*
X174507143Y-124214285D01*
X174554762Y-124261904D01*
X174602381Y-124357142D01*
X174602381Y-124452381D01*
X174554762Y-124547619D01*
X174507143Y-124595238D01*
X174411905Y-124642857D01*
X174221429Y-124690476D01*
X173983333Y-124690476D01*
X173792857Y-124642857D01*
X173697619Y-124595238D01*
X173650000Y-124547619D01*
X173602381Y-124452381D01*
X173935714Y-123690476D02*
X174935714Y-123690476D01*
X174459524Y-123214285D02*
X174554762Y-123166666D01*
X174602381Y-123071428D01*
X174459524Y-123690476D02*
X174554762Y-123642857D01*
X174602381Y-123547619D01*
X174602381Y-123357142D01*
X174554762Y-123261904D01*
X174459524Y-123214285D01*
X173935714Y-123214285D01*
X174078571Y-122309523D02*
X174078571Y-122642857D01*
X174602381Y-122642857D02*
X173602381Y-122642857D01*
X173602381Y-122166666D01*
X173554762Y-121071428D02*
X174840476Y-121928571D01*
X174602381Y-120214285D02*
X174602381Y-120785714D01*
X174602381Y-120500000D02*
X173602381Y-120500000D01*
X173745238Y-120595238D01*
X173840476Y-120690476D01*
X173888095Y-120785714D01*
X173602381Y-119595238D02*
X173602381Y-119499999D01*
X173650000Y-119404761D01*
X173697619Y-119357142D01*
X173792857Y-119309523D01*
X173983333Y-119261904D01*
X174221429Y-119261904D01*
X174411905Y-119309523D01*
X174507143Y-119357142D01*
X174554762Y-119404761D01*
X174602381Y-119499999D01*
X174602381Y-119595238D01*
X174554762Y-119690476D01*
X174507143Y-119738095D01*
X174411905Y-119785714D01*
X174221429Y-119833333D01*
X173983333Y-119833333D01*
X173792857Y-119785714D01*
X173697619Y-119738095D01*
X173650000Y-119690476D01*
X173602381Y-119595238D01*
X173602381Y-118976190D02*
X174602381Y-118642857D01*
X173602381Y-118309523D01*
X148685714Y-125869047D02*
X149352381Y-125869047D01*
X148304762Y-126107143D02*
X149019048Y-126345238D01*
X149019048Y-125726190D01*
X148352381Y-125440476D02*
X148352381Y-124773809D01*
X149352381Y-125202381D01*
X148352381Y-124202381D02*
X148352381Y-124107142D01*
X148400000Y-124011904D01*
X148447619Y-123964285D01*
X148542857Y-123916666D01*
X148733333Y-123869047D01*
X148971429Y-123869047D01*
X149161905Y-123916666D01*
X149257143Y-123964285D01*
X149304762Y-124011904D01*
X149352381Y-124107142D01*
X149352381Y-124202381D01*
X149304762Y-124297619D01*
X149257143Y-124345238D01*
X149161905Y-124392857D01*
X148971429Y-124440476D01*
X148733333Y-124440476D01*
X148542857Y-124392857D01*
X148447619Y-124345238D01*
X148400000Y-124297619D01*
X148352381Y-124202381D01*
X148685714Y-123440476D02*
X149685714Y-123440476D01*
X149209524Y-122964285D02*
X149304762Y-122916666D01*
X149352381Y-122821428D01*
X149209524Y-123440476D02*
X149304762Y-123392857D01*
X149352381Y-123297619D01*
X149352381Y-123107142D01*
X149304762Y-123011904D01*
X149209524Y-122964285D01*
X148685714Y-122964285D01*
X148828571Y-122059523D02*
X148828571Y-122392857D01*
X149352381Y-122392857D02*
X148352381Y-122392857D01*
X148352381Y-121916666D01*
X148304762Y-120821428D02*
X149590476Y-121678571D01*
X149352381Y-119964285D02*
X149352381Y-120535714D01*
X149352381Y-120250000D02*
X148352381Y-120250000D01*
X148495238Y-120345238D01*
X148590476Y-120440476D01*
X148638095Y-120535714D01*
X148352381Y-119345238D02*
X148352381Y-119249999D01*
X148400000Y-119154761D01*
X148447619Y-119107142D01*
X148542857Y-119059523D01*
X148733333Y-119011904D01*
X148971429Y-119011904D01*
X149161905Y-119059523D01*
X149257143Y-119107142D01*
X149304762Y-119154761D01*
X149352381Y-119249999D01*
X149352381Y-119345238D01*
X149304762Y-119440476D01*
X149257143Y-119488095D01*
X149161905Y-119535714D01*
X148971429Y-119583333D01*
X148733333Y-119583333D01*
X148542857Y-119535714D01*
X148447619Y-119488095D01*
X148400000Y-119440476D01*
X148352381Y-119345238D01*
X148352381Y-118726190D02*
X149352381Y-118392857D01*
X148352381Y-118059523D01*
M02*
